<svg width="75" height="38" viewBox="0 0 75 38" fill="none" xmlns="http://www.w3.org/2000/svg">
<path d="M1.00012 36.6654C1.87805 36.6654 28.6548 35.349 33.4834 34.9102C38.312 34.4714 73.4291 33.155 74.3071 32.7162" stroke="#4F5667" stroke-width="1.2197" stroke-linecap="round"/>
<path d="M35.2391 35.3487L16.8026 14.7251" stroke="#4F5667" stroke-width="1.2197" stroke-linecap="round"/>
<path d="M35.2392 35.3489L32.6052 5.07166" stroke="#4F5667" stroke-width="1.2197" stroke-linecap="round"/>
<path d="M35.2394 35.3489L54.1148 11.6536" stroke="#4F5667" stroke-width="1.2197" stroke-linecap="round"/>
<path d="M14.608 14.2867L15.047 12.5315L17.242 13.4091" stroke="#4F5667" stroke-width="1.2197" stroke-linecap="round"/>
<path d="M31.2888 3.3169L32.1668 1.99994L33.0448 3.3169" stroke="#4F5667" stroke-width="1.2197" stroke-linecap="round"/>
<path d="M54.1147 9.45998L55.8707 9.021L56.3097 10.338" stroke="#4F5667" stroke-width="1.2197" stroke-linecap="round"/>
<path d="M44.0185 10.776C43.5795 11.7999 42.3504 13.6721 40.9456 12.97C39.1896 12.0924 40.9456 9.4596 43.1405 11.6536C43.8429 12.7067 44.3111 12.97 44.4575 12.97" stroke="#4F5667" stroke-width="1.2197" stroke-linecap="round"/>
<path d="M27.338 12.0927C26.46 13.1166 24.5285 14.901 23.8261 13.8479C22.9481 12.5315 24.7041 11.6539 25.582 12.0927C26.2844 12.4438 27.338 13.4092 27.777 13.848" stroke="#4F5667" stroke-width="1.2197" stroke-linecap="round"/>
<path d="M6.70691 19.9903C6.70691 20.5754 6.79471 21.7455 7.1459 21.7455C7.58489 21.7455 7.58489 19.5515 8.02387 19.5515C8.46286 19.5515 9.34084 20.4291 9.34084 21.3067" stroke="#4F5667" stroke-width="1.2197" stroke-linecap="round"/>
<path d="M10.6577 19.5521C10.6577 19.1133 10.7455 18.3234 11.0967 18.6745C11.4479 19.0255 11.5357 20.5759 11.5357 21.3072" stroke="#4F5667" stroke-width="1.2197" stroke-linecap="round"/>
<path d="M22.9481 31.9263C22.9481 31.4875 23.0359 30.6976 23.3871 31.0487C23.7383 31.3997 23.8261 32.9501 23.8261 33.6814" stroke="#4F5667" stroke-width="1.2197" stroke-linecap="round"/>
<path d="M44.8967 30.1705C44.8967 29.7317 44.9845 28.9419 45.3357 29.2929C45.6869 29.644 45.7747 31.1944 45.7747 31.9257" stroke="#4F5667" stroke-width="1.2197" stroke-linecap="round"/>
<path d="M22.0706 29.6442C21.3389 30.2293 20.139 31.8382 21.1926 33.5934" stroke="#4F5667" stroke-width="1.2197" stroke-linecap="round"/>
<path d="M25.1429 30.0831C25.8746 30.9607 27.1623 32.9792 26.4599 34.0323" stroke="#4F5667" stroke-width="1.2197" stroke-linecap="round"/>
<path d="M43.1404 28.7671C42.7014 29.3522 41.999 30.7856 42.7014 31.8387" stroke="#4F5667" stroke-width="1.2197" stroke-linecap="round"/>
<path d="M45.774 28.3281C46.652 28.7669 48.3202 30.0833 47.969 31.8385" stroke="#4F5667" stroke-width="1.2197" stroke-linecap="round"/>
<path d="M28.6547 27.889C28.6547 27.4502 32.6056 25.695 33.9225 26.1338" stroke="#4F5667" stroke-width="1.2197" stroke-linecap="round"/>
<path d="M34.8003 28.3282C35.3856 27.7429 37.1708 27.099 39.6292 29.2062" stroke="#4F5667" stroke-width="1.2197" stroke-linecap="round"/>
</svg>
