<svg width="165" height="38" viewBox="0 0 165 38" fill="none" xmlns="http://www.w3.org/2000/svg">
<path d="M4.12488 11.8338L9.8802 12.3827C6.77964 15.2383 0.669922 21.2273 1.03559 22.3383C1.40125 23.4492 7.31697 21.3875 10.2291 20.2178M12.8266 14.3062L17.11 14.1154M91.6553 17.6343L95.5025 16.6015M14.4132 17.8107C14.6387 17.8006 16.8657 17.2246 17.951 16.9378M93.2118 20.4339C93.437 20.3735 95.6324 19.5829 96.7019 19.1952M25.9864 18.7252C25.8778 18.3355 25.756 15.7864 25.6549 13.0197M25.6549 13.0197C25.5801 10.9724 25.5165 8.80591 25.4779 7.30741C28.6811 7.60966 33.201 9.17528 25.6549 13.0197ZM36.2768 14.6916C36.358 14.0658 36.4703 13.2741 36.6051 12.4164M36.6051 12.4164C37.0339 9.68868 37.6914 6.29224 38.3074 5.43385C38.9924 4.47916 39.2613 8.73744 39.3358 12.0197M36.6051 12.4164C34.5894 12.7544 32.3391 13.1723 32.8831 13.0873M36.6051 12.4164C37.8252 12.2118 38.9593 12.0365 39.3358 12.0197M39.3358 12.0197C39.3493 12.6167 39.3564 13.1814 39.3584 13.6766C39.1729 13.1322 38.9085 12.0388 39.3358 12.0197ZM39.3358 12.0197L41.3327 11.9308M109.902 13.5578C109.977 12.7887 110.081 11.8159 110.207 10.762M110.207 10.762C110.608 7.41045 111.231 3.23852 111.838 2.18874C112.514 1.02121 112.827 6.26297 112.935 10.302M110.207 10.762C108.194 11.1571 105.947 11.6482 106.49 11.5492M110.207 10.762C111.426 10.5228 112.558 10.3188 112.935 10.302M112.935 10.302C112.954 11.0366 112.967 11.7314 112.974 12.3407C112.783 11.669 112.508 10.321 112.935 10.302ZM112.935 10.302L114.932 10.2131M120.272 1.65554C118.599 3.46677 115.789 9.1694 117.937 17.4901M45.6328 12.1305L45.4772 8.63564M72.7285 10.2082L72.5729 6.71329M65.6386 27.6847L65.483 24.1898M135.694 26.7097L135.538 23.2148M117.196 28.9634L117.041 25.4685M137.168 11.6289L136.981 7.43507M49.2193 28.4159L49.0637 24.921M64.5661 25.1508C65.7461 25.3688 68.2756 25.7658 68.953 25.6094M133.482 25.2235C134.662 25.4416 137.191 25.8385 137.869 25.6821M115.707 26.8517C116.884 26.615 119.379 26.0421 119.95 25.6449M136.191 8.82872C137.371 9.04675 139.901 9.44372 140.578 9.28732M47.1652 26.6237C48.349 26.4273 50.8627 25.9402 51.4464 25.5627M76.9776 9.24822C77.8433 8.72056 79.7007 7.07269 80.2049 4.70251C80.7091 2.33234 79.533 8.1562 78.882 11.3644M70.6426 28.8406C71.4202 28.1903 73.0008 26.3245 73.103 24.0643C73.2053 21.8042 73.0169 27.3454 72.91 30.3985M140.806 27.7486C141.584 27.0982 143.165 25.2325 143.267 22.9723C143.369 20.7122 143.181 26.2534 143.074 29.3065M141.549 11.2977C142.805 10.7066 145.549 8.78468 146.471 5.82611C147.393 2.86753 145.215 10.1428 144.01 14.1502M128.046 15.61L129.005 3.41186C131.179 3.53835 134.501 4.98564 130.389 9.76294C135.641 8.5719 133.682 14.0191 129.545 15.5432M41.7836 37.3277C41.4148 33.3972 40.7581 26.3763 40.4742 23.2638M40.4742 23.2638C40.3914 22.3569 40.3403 21.7817 40.3372 21.7116C40.3234 21.4005 40.4228 22.6168 40.4742 23.2638ZM40.4742 23.2638C42.9142 23.1551 46.9211 24.048 43.4284 28.4889M102.942 20.1883C103.274 16.2627 103.869 9.25115 104.139 6.14382M104.139 6.14382C104.218 5.23842 104.269 4.6645 104.278 4.59496C104.318 4.28676 104.202 5.49912 104.139 6.14382ZM104.139 6.14382C106.335 6.42817 109.76 7.94898 105.896 11.7574M108.252 36.6728C107.629 32.7768 108.545 24.9399 108.063 21.8539M108.063 21.8539C108.062 21.847 108.061 21.8402 108.06 21.8335M108.063 21.8539C111.566 21.5458 115.181 24.2072 110.433 27.0599M108.06 21.8335C107.994 21.4923 107.637 21.3303 107.225 21.2555M108.06 21.8335C108.008 21.5867 107.645 21.3877 107.225 21.2555M107.225 21.2555C106.583 21.1386 105.809 21.2344 105.805 21.1921C105.789 21.0061 106.575 21.0508 107.225 21.2555ZM40.4304 23.8026C39.926 23.9118 38.9416 24.2201 39.0391 24.5799M86.6404 2.82733C86.7101 2.19943 86.5476 1.18199 85.3405 2.13546C83.8317 3.3273 78.3736 12.2864 85.7696 11.7696C87.0067 11.4895 87.6379 11.3427 87.7989 11.3043M154.419 3.30515C154.515 2.7207 154.326 1.77761 152.805 2.68083C150.903 3.80985 143.955 12.2127 153.203 11.6268C154.753 11.3489 155.543 11.2035 155.745 11.1655M25.2168 19.4744C25.7166 19.8096 55.6201 20.5038 59.439 19.142C62.4941 18.0526 79.8414 18.4718 88.1332 18.8175M100.685 18.2432C101.181 18.5008 131.056 18.7552 134.885 17.6524C137.949 16.7701 155.279 16.9306 163.561 17.1212M56.8961 8.0538C57.3072 11.9301 58.2612 19.8894 58.7885 20.7157C59.3158 21.5419 59.409 17.8234 59.3898 15.8608M59.9455 24.3131C59.6497 28.2255 59.1453 36.2776 59.494 37.1865C59.8427 38.0955 60.583 34.4255 60.9096 32.4769M125.824 10.1299C125.528 14.0423 125.024 22.0943 125.372 23.0032C125.721 23.9122 126.461 20.2422 126.788 18.2936M126.091 24.4333C126.201 27.9388 126.523 35.1426 126.93 35.9141C127.338 36.6857 127.659 33.3498 127.768 31.5855M56.95 9.26392C57.0194 10.8231 56.6787 13.7545 54.7603 13.0067C52.3623 12.072 53.8598 8.46418 54.5289 7.80948C55.1979 7.15478 55.6557 5.67627 56.7064 7.7125M59.8225 25.9628C59.6289 27.4066 58.7476 30.0321 56.7708 28.9835C54.2999 27.6728 56.5683 24.6451 57.416 24.1708C58.2638 23.6964 59.0223 22.4262 59.8235 24.4932M125.701 11.7795C125.508 13.2234 124.626 15.8489 122.65 14.8002C120.179 13.4895 122.447 10.4618 123.295 9.98747C124.143 9.51312 124.901 8.24293 125.702 10.3099M126.139 25.9115C126.102 27.2138 125.551 29.6364 123.639 28.9082C121.249 27.9979 123.031 25.0755 123.761 24.567C124.491 24.0586 125.062 22.8524 125.996 24.606M61.5932 2.12445C62.4433 5.46672 63.5952 12.2927 61.4018 12.8584M62.2894 0.663888C62.5915 0.549145 76.5369 7.8285 65.5894 12.6714M156.954 0.640908C158.923 4.0478 162.139 11.5648 159.243 14.3776" stroke="url(#paint0_linear_2_531)" stroke-width="1.16449" stroke-linecap="round"/>
<defs>
<linearGradient id="paint0_linear_2_531" x1="157.523" y1="-8.75398" x2="-1.50133" y2="36.5167" gradientUnits="userSpaceOnUse">
<stop stop-color="#4C7DF1"/>
<stop offset="1" stop-color="#555963"/>
</linearGradient>
</defs>
</svg>
