<svg width="171" height="92" viewBox="0 0 171 92" fill="none" xmlns="http://www.w3.org/2000/svg">
<path d="M170.078 9.68091V8.96422L167.796 8.78505V4.17438L169.887 4.0191V3.27853H166.721V8.78505L164.583 8.96422V9.68091H170.078ZM167.366 2.11989C167.573 2.11989 167.752 2.05618 167.904 1.92877C168.047 1.80136 168.119 1.61423 168.119 1.36737C168.119 1.10459 168.047 0.913471 167.904 0.794023C167.752 0.666613 167.573 0.602907 167.366 0.602907C167.159 0.602907 166.984 0.666613 166.841 0.794023C166.689 0.913471 166.614 1.10459 166.614 1.36737C166.614 1.61423 166.689 1.80136 166.841 1.92877C166.984 2.05618 167.159 2.11989 167.366 2.11989ZM162.915 9.68091V3.27853H162.055L161.9 4.22216H161.84C161.713 3.9753 161.55 3.77623 161.351 3.62493C161.144 3.46566 160.905 3.3502 160.634 3.27853C160.363 3.1989 160.069 3.15908 159.75 3.15908C159.105 3.15908 158.587 3.34223 158.197 3.70854C157.799 4.06688 157.6 4.63227 157.6 5.40469V9.68091H158.675V5.59581C158.675 5.05431 158.787 4.66014 159.01 4.41328C159.225 4.15846 159.575 4.03105 160.061 4.03105C160.714 4.03105 161.175 4.23809 161.446 4.65217C161.709 5.06626 161.84 5.64757 161.84 6.39611V9.68091H162.915ZM151.907 9.80036C152.361 9.80036 152.767 9.74063 153.125 9.62118C153.484 9.50174 153.77 9.29071 153.985 8.98811C154.192 8.68551 154.296 8.26745 154.296 7.73392V4.17438H156.04V3.43381L154.296 3.24269L154.081 1.57043H153.221V3.27853H150.725V4.17438H153.221V7.53086C153.221 7.84938 153.177 8.11217 153.09 8.31921C152.994 8.52625 152.843 8.68153 152.636 8.78505C152.429 8.88061 152.162 8.92839 151.835 8.92839C151.628 8.92839 151.405 8.90848 151.166 8.86867C150.928 8.82885 150.721 8.78903 150.545 8.74922V9.60924C150.736 9.65702 150.948 9.70082 151.178 9.74063C151.409 9.78045 151.652 9.80036 151.907 9.80036ZM138.347 9.80036C138.968 9.80036 139.506 9.68887 139.96 9.4659C140.414 9.23497 140.764 8.88061 141.011 8.40282C141.25 7.91707 141.369 7.29196 141.369 6.5275C141.369 5.70729 141.238 5.05033 140.975 4.55662C140.704 4.0629 140.334 3.70854 139.864 3.49353C139.386 3.27057 138.845 3.15908 138.24 3.15908C137.865 3.15908 137.527 3.1989 137.224 3.27853C136.914 3.3502 136.623 3.4577 136.352 3.60104L136.675 4.473C136.93 4.33763 137.177 4.24207 137.415 4.18633C137.654 4.12262 137.913 4.09077 138.192 4.09077C138.678 4.09077 139.076 4.18235 139.386 4.3655C139.689 4.54069 139.912 4.80746 140.055 5.1658C140.199 5.51618 140.27 5.96211 140.27 6.50361C140.27 7.06899 140.195 7.52687 140.043 7.87725C139.892 8.22763 139.665 8.48245 139.362 8.64172C139.052 8.80098 138.674 8.88061 138.228 8.88061C137.877 8.88061 137.547 8.84478 137.236 8.77311C136.926 8.69348 136.655 8.6019 136.424 8.49838V9.44201C136.663 9.5535 136.958 9.64109 137.308 9.7048C137.658 9.7685 138.005 9.80036 138.347 9.80036ZM134.267 9.68091V0.602907H133.192V3.18297C133.192 3.33427 133.2 3.52539 133.216 3.75632C133.224 3.98725 133.232 4.1704 133.239 4.30578H133.18C133.044 4.04299 132.877 3.82799 132.678 3.66076C132.471 3.49353 132.24 3.3701 131.985 3.29047C131.73 3.20288 131.46 3.15908 131.173 3.15908C130.512 3.15908 129.979 3.34622 129.572 3.72048C129.158 4.08679 128.951 4.68004 128.951 5.50025V9.68091H130.026V5.71526C130.026 5.13394 130.15 4.70792 130.397 4.43717C130.644 4.16642 130.994 4.03105 131.448 4.03105C131.798 4.03105 132.105 4.12262 132.368 4.30578C132.63 4.48893 132.833 4.75569 132.977 5.10607C133.12 5.44849 133.192 5.86656 133.192 6.36027V9.68091H134.267ZM124.035 9.80036C124.72 9.80036 125.309 9.67295 125.803 9.41812C126.296 9.1633 126.679 8.79302 126.949 8.30726C127.212 7.81355 127.343 7.21233 127.343 6.50361C127.343 5.80285 127.216 5.20561 126.961 4.7119C126.706 4.21022 126.352 3.82799 125.898 3.5652C125.444 3.29446 124.915 3.15908 124.309 3.15908C123.752 3.15908 123.274 3.28251 122.876 3.52937C122.47 3.77623 122.159 4.12661 121.944 4.58051C121.721 5.02644 121.61 5.56396 121.61 6.19304V6.68278H126.256C126.241 7.2402 126.137 7.68216 125.946 8.00864C125.747 8.33513 125.48 8.57005 125.146 8.71338C124.803 8.84876 124.409 8.91644 123.963 8.91644C123.613 8.91644 123.266 8.86867 122.924 8.77311C122.581 8.67755 122.239 8.55014 121.897 8.39088V9.34646C122.263 9.50572 122.629 9.62118 122.996 9.69285C123.362 9.76452 123.708 9.80036 124.035 9.80036ZM122.685 5.82276C122.701 5.44849 122.773 5.12996 122.9 4.86718C123.027 4.59643 123.211 4.38939 123.449 4.24605C123.68 4.10272 123.967 4.03105 124.309 4.03105C124.843 4.03105 125.277 4.19429 125.611 4.52078C125.938 4.83931 126.145 5.2733 126.233 5.82276H122.685ZM116.861 9.80036C117.482 9.80036 118.019 9.68887 118.473 9.4659C118.927 9.23497 119.277 8.88061 119.524 8.40282C119.763 7.91707 119.883 7.29196 119.883 6.5275C119.883 5.70729 119.751 5.05033 119.488 4.55662C119.218 4.0629 118.847 3.70854 118.378 3.49353C117.9 3.27057 117.358 3.15908 116.753 3.15908C116.379 3.15908 116.04 3.1989 115.738 3.27853C115.427 3.3502 115.137 3.4577 114.866 3.60104L115.188 4.473C115.443 4.33763 115.69 4.24207 115.929 4.18633C116.168 4.12262 116.427 4.09077 116.705 4.09077C117.191 4.09077 117.589 4.18235 117.9 4.3655C118.202 4.54069 118.425 4.80746 118.569 5.1658C118.712 5.51618 118.784 5.96211 118.784 6.50361C118.784 7.06899 118.708 7.52687 118.557 7.87725C118.405 8.22763 118.179 8.48245 117.876 8.64172C117.565 8.80098 117.187 8.88061 116.741 8.88061C116.391 8.88061 116.06 8.84478 115.75 8.77311C115.439 8.69348 115.168 8.6019 114.938 8.49838V9.44201C115.176 9.5535 115.471 9.64109 115.821 9.7048C116.172 9.7685 116.518 9.80036 116.861 9.80036ZM112.482 9.68091V0.602907H111.407V4.97468C111.407 5.14191 111.411 5.32904 111.419 5.53608C111.426 5.74313 111.438 5.95415 111.454 6.16916C111.462 6.38416 111.474 6.58722 111.49 6.77834H111.466C111.315 6.57926 111.172 6.40009 111.036 6.24082C110.893 6.0736 110.746 5.90239 110.594 5.7272L108.385 3.27853H107.095L109.639 6.03776L106.927 9.68091H108.17L110.355 6.67083L111.407 7.68614V9.68091H112.482ZM105.439 9.68091V1.15237H103.002C101.983 1.15237 101.238 1.37135 100.768 1.80933C100.299 2.23934 100.064 2.8525 100.064 3.64882C100.064 4.11864 100.163 4.56458 100.362 4.98663C100.553 5.40867 100.876 5.75109 101.33 6.01387C101.776 6.26869 102.385 6.39611 103.157 6.39611H104.364V9.68091H105.439ZM103.277 5.46442C102.807 5.46442 102.417 5.40469 102.106 5.28524C101.788 5.1658 101.553 4.97866 101.402 4.72384C101.242 4.46106 101.163 4.12262 101.163 3.70854C101.163 3.11927 101.322 2.7012 101.64 2.45434C101.951 2.20748 102.437 2.08405 103.098 2.08405H104.364V5.46442H103.277ZM98.6709 9.68091V8.96422L96.7239 8.78505V4.17438L98.4797 4.0191V3.27853H95.8639L95.7205 4.44911H95.6727C95.4498 4.02707 95.2069 3.70854 94.9441 3.49353C94.6734 3.27057 94.319 3.15908 93.881 3.15908C93.6103 3.15908 93.3714 3.18297 93.1643 3.23075C92.9493 3.27853 92.7542 3.34223 92.579 3.42187L92.8657 4.3655C92.9931 4.29383 93.1444 4.23411 93.3196 4.18633C93.4948 4.13059 93.6819 4.10272 93.881 4.10272C94.2234 4.10272 94.526 4.21022 94.7888 4.42522C95.0516 4.64023 95.2587 4.9269 95.41 5.28524C95.5613 5.64359 95.6369 6.03776 95.6369 6.46777V8.78505L93.7735 8.96422V9.68091H98.6709ZM91.2937 9.68091V8.96422L89.0122 8.78505V4.17438L91.1026 4.0191V3.27853H87.9372V8.78505L85.7991 8.96422V9.68091H91.2937ZM88.5822 2.11989C88.7893 2.11989 88.9684 2.05618 89.1197 1.92877C89.2631 1.80136 89.3347 1.61423 89.3347 1.36737C89.3347 1.10459 89.2631 0.913471 89.1197 0.794023C88.9684 0.666613 88.7893 0.602907 88.5822 0.602907C88.3752 0.602907 88.2 0.666613 88.0567 0.794023C87.9054 0.913471 87.8297 1.10459 87.8297 1.36737C87.8297 1.61423 87.9054 1.80136 88.0567 1.92877C88.2 2.05618 88.3752 2.11989 88.5822 2.11989ZM84.4898 9.68091V3.27853H83.7493L83.594 3.98327H83.5343C83.4307 3.76826 83.3193 3.60104 83.1998 3.48159C83.0804 3.36214 82.953 3.27853 82.8176 3.23075C82.6742 3.18297 82.519 3.15908 82.3517 3.15908C82.0252 3.15908 81.7744 3.23871 81.5992 3.39798C81.4161 3.54928 81.2767 3.77623 81.1812 4.07883H81.1453C81.0099 3.78419 80.8427 3.55724 80.6436 3.39798C80.4366 3.23871 80.1658 3.15908 79.8314 3.15908C79.5049 3.15908 79.2461 3.24269 79.055 3.40992C78.8559 3.57715 78.7166 3.83197 78.6369 4.17438C78.5493 4.5168 78.5055 4.95876 78.5055 5.50025V9.68091H79.4611V5.67942C79.4611 5.34497 79.477 5.06228 79.5089 4.83134C79.5328 4.59245 79.5885 4.4093 79.6761 4.28189C79.7637 4.15448 79.907 4.09077 80.1061 4.09077C80.2972 4.09077 80.4605 4.18235 80.5959 4.3655C80.7312 4.54069 80.8348 4.80347 80.9064 5.15385C80.9781 5.50423 81.0139 5.94619 81.0139 6.47972V9.68091H81.9695V5.67942C81.9695 5.33701 81.9894 5.05033 82.0292 4.8194C82.069 4.58051 82.1407 4.40133 82.2442 4.28189C82.3398 4.15448 82.4871 4.09077 82.6862 4.09077C82.8932 4.09077 83.0605 4.19031 83.1879 4.38939C83.3153 4.58051 83.4069 4.85523 83.4626 5.21358C83.5104 5.56396 83.5343 5.986 83.5343 6.47972V9.68091H84.4898ZM73.8995 9.80036C74.5844 9.80036 75.1736 9.67295 75.6673 9.41812C76.1611 9.1633 76.5433 8.79302 76.814 8.30726C77.0768 7.81355 77.2082 7.21233 77.2082 6.50361C77.2082 5.80285 77.0808 5.20561 76.826 4.7119C76.5712 4.21022 76.2168 3.82799 75.7629 3.5652C75.309 3.29446 74.7795 3.15908 74.1743 3.15908C73.6168 3.15908 73.139 3.28251 72.7409 3.52937C72.3348 3.77623 72.0242 4.12661 71.8092 4.58051C71.5862 5.02644 71.4747 5.56396 71.4747 6.19304V6.68278H76.1212C76.1053 7.2402 76.0018 7.68216 75.8107 8.00864C75.6116 8.33513 75.3448 8.57005 75.0104 8.71338C74.668 8.84876 74.2738 8.91644 73.8279 8.91644C73.4775 8.91644 73.1311 8.86867 72.7887 8.77311C72.4463 8.67755 72.1038 8.55014 71.7614 8.39088V9.34646C72.1277 9.50572 72.494 9.62118 72.8603 9.69285C73.2266 9.76452 73.573 9.80036 73.8995 9.80036ZM72.5498 5.82276C72.5657 5.44849 72.6374 5.12996 72.7648 4.86718C72.8922 4.59643 73.0753 4.38939 73.3142 4.24605C73.5452 4.10272 73.8318 4.03105 74.1743 4.03105C74.7078 4.03105 75.1418 4.19429 75.4762 4.52078C75.8027 4.83931 76.0098 5.2733 76.0974 5.82276H72.5498ZM66.6179 11.5682C67.2231 10.8674 67.669 10.0751 67.9557 9.19117C68.2344 8.2993 68.3738 7.37159 68.3738 6.40805C68.3738 5.43654 68.2344 4.50087 67.9557 3.60104C67.669 2.69324 67.2231 1.87701 66.6179 1.15237H65.6265C66.1839 1.9009 66.606 2.72509 66.8926 3.62493C67.1713 4.52476 67.3107 5.44849 67.3107 6.39611C67.3107 7.31983 67.1713 8.22763 66.8926 9.11951C66.606 10.0034 66.1879 10.8196 65.6384 11.5682H66.6179ZM62.645 9.68091V8.96422L60.3635 8.78505V4.17438L62.4539 4.0191V3.27853H59.2885V8.78505L57.1504 8.96422V9.68091H62.645ZM59.9335 2.11989C60.1406 2.11989 60.3197 2.05618 60.471 1.92877C60.6144 1.80136 60.686 1.61423 60.686 1.36737C60.686 1.10459 60.6144 0.913471 60.471 0.794023C60.3197 0.666613 60.1406 0.602907 59.9335 0.602907C59.7265 0.602907 59.5513 0.666613 59.408 0.794023C59.2567 0.913471 59.181 1.10459 59.181 1.36737C59.181 1.61423 59.2567 1.80136 59.408 1.92877C59.5513 2.05618 59.7265 2.11989 59.9335 2.11989ZM55.4828 9.68091V3.27853H54.6228L54.4675 4.22216H54.4078C54.2804 3.9753 54.1171 3.77623 53.918 3.62493C53.711 3.46566 53.4721 3.3502 53.2014 3.27853C52.9306 3.1989 52.636 3.15908 52.3174 3.15908C51.6724 3.15908 51.1548 3.34223 50.7646 3.70854C50.3665 4.06688 50.1674 4.63227 50.1674 5.40469V9.68091H51.2424V5.59581C51.2424 5.05431 51.3539 4.66014 51.5769 4.41328C51.7919 4.15846 52.1423 4.03105 52.628 4.03105C53.281 4.03105 53.7428 4.23809 54.0136 4.65217C54.2764 5.06626 54.4078 5.64757 54.4078 6.39611V9.68091H55.4828ZM44.4744 9.80036C44.9283 9.80036 45.3344 9.74063 45.6928 9.62118C46.0511 9.50174 46.3378 9.29071 46.5528 8.98811C46.7598 8.68551 46.8634 8.26745 46.8634 7.73392V4.17438H48.6073V3.43381L46.8634 3.24269L46.6484 1.57043H45.7883V3.27853H43.2919V4.17438H45.7883V7.53086C45.7883 7.84938 45.7445 8.11217 45.6569 8.31921C45.5614 8.52625 45.4101 8.68153 45.203 8.78505C44.996 8.88061 44.7292 8.92839 44.4027 8.92839C44.1957 8.92839 43.9727 8.90848 43.7338 8.86867C43.4949 8.82885 43.2879 8.78903 43.1127 8.74922V9.60924C43.3038 9.65702 43.5149 9.70082 43.7458 9.74063C43.9767 9.78045 44.2196 9.80036 44.4744 9.80036ZM33.9963 9.68091V3.27853H33.1362L32.981 4.22216H32.9212C32.7938 3.9753 32.6306 3.77623 32.4315 3.62493C32.2245 3.46566 31.9856 3.3502 31.7148 3.27853C31.4441 3.1989 31.1494 3.15908 30.8309 3.15908C30.1859 3.15908 29.6683 3.34223 29.2781 3.70854C28.8799 4.06688 28.6809 4.63227 28.6809 5.40469V9.68091H29.7559V5.59581C29.7559 5.05431 29.8674 4.66014 30.0903 4.41328C30.3053 4.15846 30.6557 4.03105 31.1415 4.03105C31.7945 4.03105 32.2563 4.23809 32.5271 4.65217C32.7898 5.06626 32.9212 5.64757 32.9212 6.39611V9.68091H33.9963ZM24.7677 1.15237C24.1625 1.85312 23.7205 2.64944 23.4418 3.54131C23.1551 4.42522 23.0118 5.34895 23.0118 6.31249C23.0118 7.284 23.1551 8.22365 23.4418 9.13145C23.7205 10.0313 24.1625 10.8435 24.7677 11.5682H25.7591C25.2016 10.8196 24.7836 9.99545 24.5049 9.09562C24.2182 8.19578 24.0749 7.27205 24.0749 6.32444C24.0749 5.40071 24.2182 4.49689 24.5049 3.61298C24.7836 2.72111 25.1977 1.9009 25.7471 1.15237H24.7677ZM18.1071 11.3532C18.0196 11.0028 17.9359 10.6365 17.8563 10.2543C17.7767 9.87999 17.701 9.5097 17.6294 9.14339C17.5577 8.77709 17.5019 8.44264 17.4621 8.14004H16.184L16.0885 8.28337C16.1442 8.51431 16.2159 8.76116 16.3035 9.02395C16.3911 9.27877 16.4866 9.53757 16.5902 9.80036C16.6857 10.0711 16.7892 10.3379 16.9007 10.6007C17.0042 10.8634 17.1118 11.1143 17.2232 11.3532H18.1071ZM16.7693 4.78357C16.9764 4.78357 17.1516 4.71986 17.2949 4.59245C17.4382 4.46504 17.5099 4.258 17.5099 3.97132C17.5099 3.66872 17.4382 3.4577 17.2949 3.33825C17.1516 3.21881 16.9764 3.15908 16.7693 3.15908C16.5623 3.15908 16.3871 3.21881 16.2438 3.33825C16.1004 3.4577 16.0288 3.66872 16.0288 3.97132C16.0288 4.258 16.1004 4.46504 16.2438 4.59245C16.3871 4.71986 16.5623 4.78357 16.7693 4.78357ZM170.078 25.6809V24.9642L167.796 24.7851V20.1744L169.887 20.0191V19.2785H166.721V24.7851L164.583 24.9642V25.6809H170.078ZM167.366 18.1199C167.573 18.1199 167.752 18.0562 167.904 17.9288C168.047 17.8014 168.119 17.6142 168.119 17.3674C168.119 17.1046 168.047 16.9135 167.904 16.794C167.752 16.6666 167.573 16.6029 167.366 16.6029C167.159 16.6029 166.984 16.6666 166.841 16.794C166.689 16.9135 166.614 17.1046 166.614 17.3674C166.614 17.6142 166.689 17.8014 166.841 17.9288C166.984 18.0562 167.159 18.1199 167.366 18.1199ZM162.915 25.6809V19.2785H162.055L161.9 20.2222H161.84C161.713 19.9753 161.55 19.7762 161.351 19.6249C161.144 19.4657 160.905 19.3502 160.634 19.2785C160.363 19.1989 160.069 19.1591 159.75 19.1591C159.105 19.1591 158.587 19.3422 158.197 19.7085C157.799 20.0669 157.6 20.6323 157.6 21.4047V25.6809H158.675V21.5958C158.675 21.0543 158.787 20.6601 159.01 20.4133C159.225 20.1585 159.575 20.031 160.061 20.031C160.714 20.031 161.175 20.2381 161.446 20.6522C161.709 21.0663 161.84 21.6476 161.84 22.3961V25.6809H162.915ZM151.907 25.8004C152.361 25.8004 152.767 25.7406 153.125 25.6212C153.484 25.5017 153.77 25.2907 153.985 24.9881C154.192 24.6855 154.296 24.2674 154.296 23.7339V20.1744H156.04V19.4338L154.296 19.2427L154.081 17.5704H153.221V19.2785H150.725V20.1744H153.221V23.5309C153.221 23.8494 153.177 24.1122 153.09 24.3192C152.994 24.5263 152.843 24.6815 152.636 24.7851C152.429 24.8806 152.162 24.9284 151.835 24.9284C151.628 24.9284 151.405 24.9085 151.166 24.8687C150.928 24.8289 150.721 24.789 150.545 24.7492V25.6092C150.736 25.657 150.948 25.7008 151.178 25.7406C151.409 25.7804 151.652 25.8004 151.907 25.8004ZM141.787 25.6809V19.2785H141.047L140.891 19.9833H140.832C140.728 19.7683 140.617 19.601 140.497 19.4816C140.378 19.3621 140.25 19.2785 140.115 19.2307C139.972 19.183 139.816 19.1591 139.649 19.1591C139.323 19.1591 139.072 19.2387 138.897 19.398C138.713 19.5493 138.574 19.7762 138.479 20.0788H138.443C138.307 19.7842 138.14 19.5572 137.941 19.398C137.734 19.2387 137.463 19.1591 137.129 19.1591C136.802 19.1591 136.544 19.2427 136.352 19.4099C136.153 19.5771 136.014 19.832 135.934 20.1744C135.847 20.5168 135.803 20.9588 135.803 21.5002V25.6809H136.759V21.6794C136.759 21.345 136.774 21.0623 136.806 20.8313C136.83 20.5924 136.886 20.4093 136.974 20.2819C137.061 20.1545 137.204 20.0908 137.404 20.0908C137.595 20.0908 137.758 20.1823 137.893 20.3655C138.029 20.5407 138.132 20.8035 138.204 21.1539C138.276 21.5042 138.311 21.9462 138.311 22.4797V25.6809H139.267V21.6794C139.267 21.337 139.287 21.0503 139.327 20.8194C139.366 20.5805 139.438 20.4013 139.542 20.2819C139.637 20.1545 139.785 20.0908 139.984 20.0908C140.191 20.0908 140.358 20.1903 140.485 20.3894C140.613 20.5805 140.704 20.8552 140.76 21.2136C140.808 21.564 140.832 21.986 140.832 22.4797V25.6809H141.787ZM132.284 25.8004C132.913 25.8004 133.423 25.6451 133.813 25.3345C134.195 25.0239 134.386 24.5541 134.386 23.925C134.386 23.4632 134.275 23.0809 134.052 22.7783C133.829 22.4678 133.502 22.2368 133.072 22.0855C132.634 21.9263 132.105 21.8387 131.484 21.8228L130.11 21.7869V21.5241C130.11 20.9508 130.253 20.5606 130.54 20.3536C130.827 20.1385 131.213 20.031 131.699 20.031C132.041 20.031 132.368 20.0748 132.678 20.1624C132.989 20.25 133.283 20.3735 133.562 20.5327L133.932 19.7205C133.63 19.5692 133.295 19.4378 132.929 19.3263C132.555 19.2148 132.125 19.1591 131.639 19.1591C130.835 19.1591 130.217 19.3422 129.787 19.7085C129.349 20.0669 129.131 20.6283 129.131 21.3927V25.6809H129.991L130.11 24.797H130.158C130.333 25.02 130.528 25.2071 130.743 25.3584C130.95 25.5017 131.181 25.6092 131.436 25.6809C131.691 25.7605 131.973 25.8004 132.284 25.8004ZM132.105 24.9284C131.746 24.9284 131.416 24.8647 131.113 24.7373C130.811 24.6019 130.568 24.4028 130.385 24.14C130.202 23.8693 130.11 23.5309 130.11 23.1247V22.5514L131.257 22.5872C131.766 22.6031 132.176 22.6669 132.487 22.7783C132.798 22.8819 133.024 23.0292 133.168 23.2203C133.303 23.4034 133.371 23.6264 133.371 23.8892C133.371 24.2555 133.255 24.5223 133.024 24.6895C132.794 24.8488 132.487 24.9284 132.105 24.9284ZM127.105 25.6809V24.9642L124.823 24.7851V20.1744L126.913 20.0191V19.2785H123.748V24.7851L121.61 24.9642V25.6809H127.105ZM124.393 18.1199C124.6 18.1199 124.779 18.0562 124.931 17.9288C125.074 17.8014 125.146 17.6142 125.146 17.3674C125.146 17.1046 125.074 16.9135 124.931 16.794C124.779 16.6666 124.6 16.6029 124.393 16.6029C124.186 16.6029 124.011 16.6666 123.868 16.794C123.716 16.9135 123.641 17.1046 123.641 17.3674C123.641 17.6142 123.716 17.8014 123.868 17.9288C124.011 18.0562 124.186 18.1199 124.393 18.1199ZM119.942 25.6809V19.2785H119.082L118.927 20.2222H118.867C118.74 19.9753 118.577 19.7762 118.378 19.6249C118.171 19.4657 117.932 19.3502 117.661 19.2785C117.39 19.1989 117.096 19.1591 116.777 19.1591C116.132 19.1591 115.614 19.3422 115.224 19.7085C114.826 20.0669 114.627 20.6323 114.627 21.4047V25.6809H115.702V21.5958C115.702 21.0543 115.813 20.6601 116.036 20.4133C116.251 20.1585 116.602 20.031 117.088 20.031C117.741 20.031 118.202 20.2381 118.473 20.6522C118.736 21.0663 118.867 21.6476 118.867 22.3961V25.6809H119.942ZM109.591 27.5682C110.196 26.8674 110.642 26.0751 110.929 25.1912C111.207 24.2993 111.347 23.3716 111.347 22.408C111.347 21.4365 111.207 20.5009 110.929 19.601C110.642 18.6932 110.196 17.877 109.591 17.1524H108.6C109.157 17.9009 109.579 18.7251 109.866 19.6249C110.144 20.5248 110.284 21.4485 110.284 22.3961C110.284 23.3198 110.144 24.2276 109.866 25.1195C109.579 26.0034 109.161 26.8196 108.611 27.5682H109.591ZM96.3894 17.1524C95.7842 17.8531 95.3423 18.6494 95.0636 19.5413C94.7769 20.4252 94.6335 21.3489 94.6335 22.3125C94.6335 23.284 94.7769 24.2237 95.0636 25.1315C95.3423 26.0313 95.7842 26.8435 96.3894 27.5682H97.3808C96.8234 26.8196 96.4053 25.9955 96.1266 25.0956C95.84 24.1958 95.6966 23.2721 95.6966 22.3244C95.6966 21.4007 95.84 20.4969 96.1266 19.613C96.4053 18.7211 96.8194 17.9009 97.3689 17.1524H96.3894ZM72.4303 27.5682C72.9161 27.5602 73.3381 27.4885 73.6965 27.3532C74.0468 27.2178 74.3176 27.0068 74.5087 26.7201C74.6998 26.4414 74.7954 26.091 74.7954 25.669V23.9131C74.7954 23.507 74.9228 23.2203 75.1776 23.0531C75.4245 22.8779 75.7828 22.7903 76.2526 22.7903V21.9183C75.7828 21.9104 75.4245 21.8228 75.1776 21.6555C74.9228 21.4883 74.7954 21.2056 74.7954 20.8075V19.0396C74.7954 18.6176 74.6958 18.2672 74.4968 17.9885C74.2977 17.7098 74.019 17.5027 73.6606 17.3674C73.3023 17.224 72.8922 17.1524 72.4303 17.1524V18.0124C72.7011 18.0203 72.936 18.0641 73.1351 18.1438C73.3341 18.2234 73.4894 18.3429 73.6009 18.5021C73.7044 18.6614 73.7562 18.8724 73.7562 19.1352V20.8552C73.7562 21.2614 73.8637 21.5878 74.0787 21.8347C74.2937 22.0736 74.6202 22.2329 75.0582 22.3125V22.3842C74.6122 22.4638 74.2857 22.627 74.0787 22.8739C73.8637 23.1128 73.7562 23.4353 73.7562 23.8414V25.5973C73.7562 25.9875 73.6407 26.2662 73.4098 26.4334C73.1789 26.6086 72.8524 26.7002 72.4303 26.7082V27.5682ZM170.078 41.6809V40.9642L167.796 40.7851V36.1744L169.887 36.0191V35.2785H166.721V40.7851L164.583 40.9642V41.6809H170.078ZM167.366 34.1199C167.573 34.1199 167.752 34.0562 167.904 33.9288C168.047 33.8014 168.119 33.6142 168.119 33.3674C168.119 33.1046 168.047 32.9135 167.904 32.794C167.752 32.6666 167.573 32.6029 167.366 32.6029C167.159 32.6029 166.984 32.6666 166.841 32.794C166.689 32.9135 166.614 33.1046 166.614 33.3674C166.614 33.6142 166.689 33.8014 166.841 33.9288C166.984 34.0562 167.159 34.1199 167.366 34.1199ZM162.915 41.6809V35.2785H162.055L161.9 36.2222H161.84C161.713 35.9753 161.55 35.7762 161.351 35.6249C161.144 35.4657 160.905 35.3502 160.634 35.2785C160.363 35.1989 160.069 35.1591 159.75 35.1591C159.105 35.1591 158.587 35.3422 158.197 35.7085C157.799 36.0669 157.6 36.6323 157.6 37.4047V41.6809H158.675V37.5958C158.675 37.0543 158.787 36.6601 159.01 36.4133C159.225 36.1585 159.575 36.031 160.061 36.031C160.714 36.031 161.175 36.2381 161.446 36.6522C161.709 37.0663 161.84 37.6476 161.84 38.3961V41.6809H162.915ZM151.907 41.8004C152.361 41.8004 152.767 41.7406 153.125 41.6212C153.484 41.5017 153.77 41.2907 153.985 40.9881C154.192 40.6855 154.296 40.2674 154.296 39.7339V36.1744H156.04V35.4338L154.296 35.2427L154.081 33.5704H153.221V35.2785H150.725V36.1744H153.221V39.5309C153.221 39.8494 153.177 40.1122 153.09 40.3192C152.994 40.5263 152.843 40.6815 152.636 40.7851C152.429 40.8806 152.162 40.9284 151.835 40.9284C151.628 40.9284 151.405 40.9085 151.166 40.8687C150.928 40.8289 150.721 40.789 150.545 40.7492V41.6092C150.736 41.657 150.948 41.7008 151.178 41.7406C151.409 41.7804 151.652 41.8004 151.907 41.8004ZM141.429 41.6809V35.2785H140.569L140.414 36.2222H140.354C140.226 35.9753 140.063 35.7762 139.864 35.6249C139.657 35.4657 139.418 35.3502 139.147 35.2785C138.877 35.1989 138.582 35.1591 138.264 35.1591C137.619 35.1591 137.101 35.3422 136.711 35.7085C136.313 36.0669 136.114 36.6323 136.114 37.4047V41.6809H137.189V37.5958C137.189 37.0543 137.3 36.6601 137.523 36.4133C137.738 36.1585 138.088 36.031 138.574 36.031C139.227 36.031 139.689 36.2381 139.96 36.6522C140.222 37.0663 140.354 37.6476 140.354 38.3961V41.6809H141.429ZM132.702 43.3532C132.614 43.0028 132.531 42.6365 132.451 42.2543C132.372 41.88 132.296 41.5097 132.224 41.1434C132.153 40.7771 132.097 40.4426 132.057 40.14H130.779L130.683 40.2834C130.739 40.5143 130.811 40.7612 130.898 41.0239C130.986 41.2788 131.081 41.5376 131.185 41.8004C131.281 42.0711 131.384 42.3379 131.496 42.6007C131.599 42.8634 131.707 43.1143 131.818 43.3532H132.702ZM119.942 41.6809V40.9642L117.661 40.7851V36.1744L119.751 36.0191V35.2785H116.586V40.7851L114.448 40.9642V41.6809H119.942ZM117.231 34.1199C117.438 34.1199 117.617 34.0562 117.768 33.9288C117.912 33.8014 117.983 33.6142 117.983 33.3674C117.983 33.1046 117.912 32.9135 117.768 32.794C117.617 32.6666 117.438 32.6029 117.231 32.6029C117.024 32.6029 116.849 32.6666 116.705 32.794C116.554 32.9135 116.478 33.1046 116.478 33.3674C116.478 33.6142 116.554 33.8014 116.705 33.9288C116.849 34.0562 117.024 34.1199 117.231 34.1199ZM111.215 43.3532C111.128 43.0028 111.044 42.6365 110.965 42.2543C110.885 41.88 110.809 41.5097 110.738 41.1434C110.666 40.7771 110.61 40.4426 110.57 40.14H109.292L109.197 40.2834C109.253 40.5143 109.324 40.7612 109.412 41.0239C109.499 41.2788 109.595 41.5376 109.698 41.8004C109.794 42.0711 109.898 42.3379 110.009 42.6007C110.113 42.8634 110.22 43.1143 110.332 43.3532H111.215ZM96.5328 41.6809V36.1744H98.6231V35.4338L96.5328 35.2785V34.5499C96.5328 34.0403 96.4372 33.6421 96.2461 33.3554C96.047 33.0608 95.7723 32.8537 95.4219 32.7343C95.0715 32.6069 94.6654 32.5432 94.2035 32.5432C93.8532 32.5432 93.5466 32.5671 93.2838 32.6149C93.021 32.6626 92.7941 32.7184 92.6029 32.7821L92.8418 33.6063C93.0011 33.5585 93.2002 33.5187 93.4391 33.4868C93.678 33.447 93.9129 33.4271 94.1438 33.4271C94.5579 33.4271 94.8804 33.5147 95.1113 33.6899C95.3423 33.8651 95.4577 34.1995 95.4577 34.6932V35.2785H93.0449V36.1744H95.4577V41.6809H96.5328ZM91.2937 41.6809V40.9642L88.9525 40.7851V33.4988L91.222 33.3435V32.6029H87.8775V40.7851L85.7991 40.9642V41.6809H91.2937ZM82.1487 41.8004C82.7778 41.8004 83.2874 41.6451 83.6776 41.3345C84.0598 41.0239 84.251 40.5541 84.251 39.925C84.251 39.4632 84.1395 39.0809 83.9165 38.7783C83.6935 38.4678 83.367 38.2368 82.937 38.0855C82.4991 37.9263 81.9695 37.8387 81.3484 37.8228L79.9747 37.7869V37.5241C79.9747 36.9508 80.1181 36.5606 80.4047 36.3536C80.6914 36.1385 81.0776 36.031 81.5634 36.031C81.9058 36.031 82.2323 36.0748 82.5429 36.1624C82.8534 36.25 83.1481 36.3735 83.4268 36.5327L83.7971 35.7205C83.4945 35.5692 83.16 35.4378 82.7937 35.3263C82.4194 35.2148 81.9894 35.1591 81.5037 35.1591C80.6994 35.1591 80.0822 35.3422 79.6522 35.7085C79.2143 36.0669 78.9953 36.6283 78.9953 37.3927V41.6809H79.8553L79.9747 40.797H80.0225C80.1977 41.02 80.3928 41.2071 80.6078 41.3584C80.8148 41.5017 81.0458 41.6092 81.3006 41.6809C81.5554 41.7605 81.8381 41.8004 82.1487 41.8004ZM81.9695 40.9284C81.6112 40.9284 81.2807 40.8647 80.9781 40.7373C80.6755 40.6019 80.4326 40.4028 80.2495 40.14C80.0663 39.8693 79.9747 39.5309 79.9747 39.1247V38.5514L81.1214 38.5872C81.6311 38.6031 82.0412 38.6669 82.3517 38.7783C82.6623 38.8819 82.8893 39.0292 83.0326 39.2203C83.168 39.4034 83.2356 39.6264 83.2356 39.8892C83.2356 40.2555 83.1202 40.5223 82.8893 40.6895C82.6583 40.8488 82.3517 40.9284 81.9695 40.9284ZM74.6282 44.6074C75.0661 44.6074 75.4802 44.5636 75.8704 44.476C76.2526 44.3963 76.607 44.2888 76.9335 44.1535V43.1979C76.615 43.381 76.2487 43.5164 75.8346 43.604C75.4125 43.6996 75.0223 43.7473 74.664 43.7473C73.9393 43.7473 73.4337 43.5761 73.147 43.2337C72.8603 42.8993 72.717 42.4374 72.717 41.8481V41.6212C72.717 41.5256 72.717 41.4341 72.717 41.3465C72.709 41.2589 72.6971 41.1235 72.6812 40.9403H72.7289C72.9519 41.2668 73.2147 41.4938 73.5173 41.6212C73.8119 41.7406 74.1703 41.8004 74.5923 41.8004C75.4364 41.8004 76.0934 41.5137 76.5632 40.9403C77.033 40.359 77.2679 39.5508 77.2679 38.5156C77.2679 37.4724 77.037 36.6522 76.5751 36.0549C76.1053 35.4577 75.4643 35.1591 74.652 35.1591C74.222 35.1591 73.8597 35.2307 73.5651 35.3741C73.2704 35.5095 73.0077 35.7404 72.7767 36.0669H72.717L72.5737 35.2785H71.7136V41.8481C71.7136 42.4533 71.8172 42.959 72.0242 43.3651C72.2312 43.7792 72.5498 44.0898 72.9798 44.2968C73.4098 44.5038 73.9593 44.6074 74.6282 44.6074ZM74.3893 40.9284C74.1265 40.9284 73.8916 40.8886 73.6845 40.8089C73.4695 40.7213 73.2903 40.59 73.147 40.4148C72.9957 40.2316 72.8802 40.0047 72.8006 39.7339C72.721 39.4552 72.6812 39.1247 72.6812 38.7425V38.4917C72.6812 37.9104 72.7528 37.4405 72.8962 37.0822C73.0315 36.7159 73.2306 36.4491 73.4934 36.2819C73.7562 36.1147 74.0668 36.031 74.4251 36.031C75.0303 36.031 75.4723 36.2461 75.751 36.6761C76.0297 37.0981 76.169 37.6993 76.169 38.4797C76.169 39.276 76.0257 39.8852 75.739 40.3073C75.4444 40.7213 74.9945 40.9284 74.3893 40.9284ZM62.7644 36.8194V35.8638H57.2698V36.8194H62.7644ZM62.7644 39.0889V38.1333H57.2698V39.0889H62.7644ZM45.7047 41.8004C46.3657 41.8004 46.9072 41.6252 47.3292 41.2748C47.7513 40.9244 48.0618 40.4227 48.2609 39.7698C48.46 39.1088 48.5595 38.3205 48.5595 37.4047C48.5595 36.481 48.464 35.6966 48.2728 35.0516C48.0817 34.3986 47.7791 33.9009 47.365 33.5585C46.943 33.2081 46.3896 33.0329 45.7047 33.0329C45.0358 33.0329 44.4903 33.2041 44.0683 33.5465C43.6383 33.889 43.3237 34.3867 43.1247 35.0396C42.9256 35.6926 42.826 36.481 42.826 37.4047C42.826 38.0975 42.8818 38.7146 42.9933 39.2561C43.0968 39.7976 43.264 40.2595 43.4949 40.6417C43.7179 41.016 44.0126 41.3027 44.3789 41.5017C44.7452 41.7008 45.1871 41.8004 45.7047 41.8004ZM47.0664 40.4864L47.7712 39.8653L44.4266 34.2035L43.8055 34.9919L47.0664 40.4864ZM45.7047 40.8567C45.0517 40.8567 44.57 40.578 44.2594 40.0206C43.9488 39.4552 43.7936 38.5832 43.7936 37.4047C43.7936 36.6482 43.8613 36.0191 43.9966 35.5174C44.132 35.0078 44.343 34.6255 44.6297 34.3707C44.9084 34.1079 45.2667 33.9766 45.7047 33.9766C46.1347 33.9766 46.4851 34.1 46.7559 34.3468C47.0266 34.5937 47.2297 34.9719 47.365 35.4816C47.4925 35.9833 47.5562 36.6243 47.5562 37.4047C47.5562 38.5116 47.4168 39.3636 47.1381 39.9609C46.8514 40.5581 46.3736 40.8567 45.7047 40.8567ZM39.5937 43.3532C39.5061 43.0028 39.4225 42.6365 39.3428 42.2543C39.2632 41.88 39.1876 41.5097 39.1159 41.1434C39.0442 40.7771 38.9885 40.4426 38.9487 40.14H37.6706L37.575 40.2834C37.6308 40.5143 37.7024 40.7612 37.79 41.0239C37.8776 41.2788 37.9732 41.5376 38.0767 41.8004C38.1723 42.0711 38.2758 42.3379 38.3873 42.6007C38.4908 42.8634 38.5983 43.1143 38.7098 43.3532H39.5937ZM38.2559 36.7836C38.4629 36.7836 38.6381 36.7199 38.7814 36.5924C38.9248 36.465 38.9965 36.258 38.9965 35.9713C38.9965 35.6687 38.9248 35.4577 38.7814 35.3383C38.6381 35.2188 38.4629 35.1591 38.2559 35.1591C38.0488 35.1591 37.8736 35.2188 37.7303 35.3383C37.587 35.4577 37.5153 35.6687 37.5153 35.9713C37.5153 36.258 37.587 36.465 37.7303 36.5924C37.8736 36.7199 38.0488 36.7836 38.2559 36.7836ZM170.078 60.5476V51.2785H169.194L169.062 52.1505H169.015C168.887 51.9435 168.736 51.7683 168.561 51.6249C168.385 51.4736 168.178 51.3582 167.94 51.2785C167.701 51.1989 167.422 51.1591 167.103 51.1591C166.713 51.1591 166.359 51.2307 166.04 51.3741C165.722 51.5095 165.451 51.7165 165.228 51.9952C164.997 52.2739 164.822 52.6203 164.702 53.0344C164.583 53.4485 164.523 53.9263 164.523 54.4678C164.523 55.1924 164.631 55.8056 164.846 56.3073C165.053 56.801 165.351 57.1752 165.742 57.4301C166.124 57.6769 166.578 57.8004 167.103 57.8004C167.414 57.8004 167.693 57.7566 167.94 57.669C168.178 57.5814 168.385 57.4659 168.561 57.3226C168.736 57.1792 168.887 57.0239 169.015 56.8567H169.086C169.062 57.008 169.046 57.1673 169.038 57.3345C169.023 57.4938 169.015 57.653 169.015 57.8123V60.5476H170.078ZM167.33 56.9284C166.733 56.9284 166.299 56.7253 166.028 56.3192C165.758 55.9051 165.622 55.28 165.622 54.4439C165.622 53.6237 165.758 53.0185 166.028 52.6283C166.291 52.2301 166.729 52.031 167.342 52.031C167.924 52.031 168.35 52.2222 168.62 52.6044C168.883 52.9787 169.015 53.5202 169.015 54.2289V54.4678C169.015 55.2243 168.895 55.8255 168.656 56.2714C168.409 56.7094 167.967 56.9284 167.33 56.9284ZM163.13 57.6809V56.9642L161.183 56.7851V52.1744L162.939 52.0191V51.2785H160.323L160.18 52.4491H160.132C159.909 52.0271 159.666 51.7085 159.404 51.4935C159.133 51.2706 158.779 51.1591 158.341 51.1591C158.07 51.1591 157.831 51.183 157.624 51.2307C157.409 51.2785 157.214 51.3422 157.039 51.4219L157.325 52.3655C157.453 52.2938 157.604 52.2341 157.779 52.1863C157.954 52.1306 158.142 52.1027 158.341 52.1027C158.683 52.1027 158.986 52.2102 159.248 52.4252C159.511 52.6402 159.718 52.9269 159.87 53.2852C160.021 53.6436 160.096 54.0378 160.096 54.4678V56.7851L158.233 56.9642V57.6809H163.13ZM155.753 57.6809V56.9642L153.472 56.7851V52.1744L155.562 52.0191V51.2785H152.397V56.7851L150.259 56.9642V57.6809H155.753ZM153.042 50.1199C153.249 50.1199 153.428 50.0562 153.579 49.9288C153.723 49.8014 153.794 49.6142 153.794 49.3674C153.794 49.1046 153.723 48.9135 153.579 48.794C153.428 48.6666 153.249 48.6029 153.042 48.6029C152.835 48.6029 152.66 48.6666 152.516 48.794C152.365 48.9135 152.289 49.1046 152.289 49.3674C152.289 49.6142 152.365 49.8014 152.516 49.9288C152.66 50.0562 152.835 50.1199 153.042 50.1199ZM148.591 57.6809V51.2785H147.731L147.576 52.2222H147.516C147.389 51.9753 147.225 51.7762 147.026 51.6249C146.819 51.4657 146.58 51.3502 146.31 51.2785C146.039 51.1989 145.744 51.1591 145.426 51.1591C144.781 51.1591 144.263 51.3422 143.873 51.7085C143.475 52.0669 143.276 52.6323 143.276 53.4047V57.6809H144.351V53.5958C144.351 53.0543 144.462 52.6601 144.685 52.4133C144.9 52.1585 145.251 52.031 145.736 52.031C146.389 52.031 146.851 52.2381 147.122 52.6522C147.385 53.0663 147.516 53.6476 147.516 54.3961V57.6809H148.591ZM137.583 57.8004C138.037 57.8004 138.443 57.7406 138.801 57.6212C139.159 57.5017 139.446 57.2907 139.661 56.9881C139.868 56.6855 139.972 56.2674 139.972 55.7339V52.1744H141.716V51.4338L139.972 51.2427L139.757 49.5704H138.897V51.2785H136.4V52.1744H138.897V55.5309C138.897 55.8494 138.853 56.1122 138.765 56.3192C138.67 56.5263 138.518 56.6815 138.311 56.7851C138.104 56.8806 137.838 56.9284 137.511 56.9284C137.304 56.9284 137.081 56.9085 136.842 56.8687C136.603 56.8289 136.396 56.789 136.221 56.7492V57.6092C136.412 57.657 136.623 57.7008 136.854 57.7406C137.085 57.7804 137.328 57.8004 137.583 57.8004ZM132.344 57.6809V52.1744H134.434V51.4338L132.344 51.2785V50.5499C132.344 50.0403 132.248 49.6421 132.057 49.3554C131.858 49.0608 131.583 48.8537 131.233 48.7343C130.882 48.6069 130.476 48.5432 130.014 48.5432C129.664 48.5432 129.357 48.5671 129.095 48.6149C128.832 48.6626 128.605 48.7184 128.414 48.7821L128.653 49.6063C128.812 49.5585 129.011 49.5187 129.25 49.4868C129.489 49.447 129.724 49.4271 129.955 49.4271C130.369 49.4271 130.691 49.5147 130.922 49.6899C131.153 49.8651 131.269 50.1995 131.269 50.6932V51.2785H128.856V52.1744H131.269V57.6809H132.344ZM123.915 59.5682C124.521 58.8674 124.966 58.0751 125.253 57.1912C125.532 56.2993 125.671 55.3716 125.671 54.408C125.671 53.4365 125.532 52.5009 125.253 51.601C124.966 50.6932 124.521 49.877 123.915 49.1524H122.924C123.481 49.9009 123.903 50.7251 124.19 51.6249C124.469 52.5248 124.608 53.4485 124.608 54.3961C124.608 55.3198 124.469 56.2276 124.19 57.1195C123.903 58.0034 123.485 58.8196 122.936 59.5682H123.915ZM119.321 51.9474C119.25 51.6687 119.158 51.3661 119.047 51.0396C118.935 50.7131 118.816 50.3867 118.688 50.0602C118.553 49.7337 118.421 49.4311 118.294 49.1524H117.518C117.589 49.455 117.665 49.7815 117.745 50.1318C117.824 50.4742 117.896 50.8167 117.96 51.1591C118.023 51.4935 118.075 51.8001 118.115 52.0788H119.25L119.321 51.9474ZM117.111 51.9474C117.04 51.6687 116.948 51.3661 116.837 51.0396C116.725 50.7131 116.606 50.3867 116.478 50.0602C116.343 49.7337 116.212 49.4311 116.084 49.1524H115.308C115.379 49.455 115.455 49.7815 115.535 50.1318C115.614 50.4742 115.686 50.8167 115.75 51.1591C115.813 51.4935 115.865 51.8001 115.905 52.0788H117.04L117.111 51.9474ZM112.601 57.6809V49.1524H107.584V50.1079H111.526V52.7477H107.811V53.7033H111.526V56.7253H107.584V57.6809H112.601ZM105.618 57.6809V51.2785H104.758L104.603 52.2222H104.543C104.416 51.9753 104.252 51.7762 104.053 51.6249C103.846 51.4657 103.607 51.3502 103.337 51.2785C103.066 51.1989 102.771 51.1591 102.453 51.1591C101.808 51.1591 101.29 51.3422 100.9 51.7085C100.502 52.0669 100.303 52.6323 100.303 53.4047V57.6809H101.378V53.5958C101.378 53.0543 101.489 52.6601 101.712 52.4133C101.927 52.1585 102.277 52.031 102.763 52.031C103.416 52.031 103.878 52.2381 104.149 52.6522C104.412 53.0663 104.543 53.6476 104.543 54.3961V57.6809H105.618ZM94.6097 57.8004C95.0636 57.8004 95.4697 57.7406 95.828 57.6212C96.1864 57.5017 96.473 57.2907 96.688 56.9881C96.8951 56.6855 96.9986 56.2674 96.9986 55.7339V52.1744H98.7425V51.4338L96.9986 51.2427L96.7836 49.5704H95.9236V51.2785H93.4271V52.1744H95.9236V55.5309C95.9236 55.8494 95.8798 56.1122 95.7922 56.3192C95.6966 56.5263 95.5453 56.6815 95.3383 56.7851C95.1312 56.8806 94.8645 56.9284 94.538 56.9284C94.3309 56.9284 94.108 56.9085 93.8691 56.8687C93.6302 56.8289 93.4231 56.789 93.248 56.7492V57.6092C93.4391 57.657 93.6501 57.7008 93.881 57.7406C94.112 57.7804 94.3548 57.8004 94.6097 57.8004ZM88.2239 57.8004C88.9087 57.8004 89.498 57.6729 89.9917 57.4181C90.4854 57.1633 90.8677 56.793 91.1384 56.3073C91.4012 55.8135 91.5326 55.2123 91.5326 54.5036C91.5326 53.8029 91.4052 53.2056 91.1503 52.7119C90.8955 52.2102 90.5412 51.828 90.0873 51.5652C89.6334 51.2945 89.1038 51.1591 88.4986 51.1591C87.9412 51.1591 87.4634 51.2825 87.0652 51.5294C86.6591 51.7762 86.3486 52.1266 86.1336 52.5805C85.9106 53.0264 85.7991 53.564 85.7991 54.193V54.6828H90.4456C90.4297 55.2402 90.3262 55.6822 90.135 56.0086C89.936 56.3351 89.6692 56.57 89.3347 56.7134C88.9923 56.8488 88.5982 56.9164 88.1522 56.9164C87.8018 56.9164 87.4554 56.8687 87.113 56.7731C86.7706 56.6776 86.4282 56.5501 86.0858 56.3909V57.3465C86.4521 57.5057 86.8184 57.6212 87.1847 57.6929C87.551 57.7645 87.8974 57.8004 88.2239 57.8004ZM86.8741 53.8228C86.8901 53.4485 86.9617 53.13 87.0891 52.8672C87.2165 52.5964 87.3997 52.3894 87.6386 52.2461C87.8695 52.1027 88.1562 52.031 88.4986 52.031C89.0321 52.031 89.4661 52.1943 89.8006 52.5208C90.1271 52.8393 90.3341 53.2733 90.4217 53.8228H86.8741ZM84.3465 57.6809V56.9642L82.3995 56.7851V52.1744L84.1554 52.0191V51.2785H81.5395L81.3962 52.4491H81.3484C81.1254 52.0271 80.8825 51.7085 80.6197 51.4935C80.349 51.2706 79.9946 51.1591 79.5567 51.1591C79.2859 51.1591 79.047 51.183 78.84 51.2307C78.625 51.2785 78.4299 51.3422 78.2547 51.4219L78.5414 52.3655C78.6688 52.2938 78.8201 52.2341 78.9953 52.1863C79.1705 52.1306 79.3576 52.1027 79.5567 52.1027C79.8991 52.1027 80.2017 52.2102 80.4645 52.4252C80.7273 52.6402 80.9343 52.9269 81.0856 53.2852C81.2369 53.6436 81.3125 54.0378 81.3125 54.4678V56.7851L79.4492 56.9642V57.6809H84.3465ZM67.8243 57.8004C68.4534 57.8004 68.9631 57.6451 69.3533 57.3345C69.7355 57.0239 69.9266 56.5541 69.9266 55.925C69.9266 55.4632 69.8151 55.0809 69.5921 54.7783C69.3692 54.4678 69.0427 54.2368 68.6127 54.0855C68.1747 53.9263 67.6452 53.8387 67.024 53.8228L65.6504 53.7869V53.5241C65.6504 52.9508 65.7937 52.5606 66.0804 52.3536C66.3671 52.1385 66.7533 52.031 67.239 52.031C67.5815 52.031 67.9079 52.0748 68.2185 52.1624C68.5291 52.25 68.8237 52.3735 69.1024 52.5327L69.4727 51.7205C69.1701 51.5692 68.8356 51.4378 68.4693 51.3263C68.0951 51.2148 67.6651 51.1591 67.1793 51.1591C66.375 51.1591 65.7579 51.3422 65.3279 51.7085C64.8899 52.0669 64.6709 52.6283 64.6709 53.3927V57.6809H65.5309L65.6504 56.797H65.6982C65.8734 57.02 66.0685 57.2071 66.2835 57.3584C66.4905 57.5017 66.7214 57.6092 66.9763 57.6809C67.2311 57.7605 67.5138 57.8004 67.8243 57.8004ZM67.6452 56.9284C67.2868 56.9284 66.9563 56.8647 66.6537 56.7373C66.3511 56.6019 66.1083 56.4028 65.9251 56.14C65.742 55.8693 65.6504 55.5309 65.6504 55.1247V54.5514L66.7971 54.5872C67.3067 54.6031 67.7168 54.6669 68.0274 54.7783C68.338 54.8819 68.5649 55.0292 68.7082 55.2203C68.8436 55.4034 68.9113 55.6264 68.9113 55.8892C68.9113 56.2555 68.7958 56.5223 68.5649 56.6895C68.334 56.8488 68.0274 56.9284 67.6452 56.9284ZM55.4828 60.5476V51.2785H54.5989L54.4675 52.1505H54.4197C54.2923 51.9435 54.141 51.7683 53.9658 51.6249C53.7906 51.4736 53.5836 51.3582 53.3447 51.2785C53.1058 51.1989 52.8271 51.1591 52.5086 51.1591C52.1184 51.1591 51.764 51.2307 51.4455 51.3741C51.127 51.5095 50.8562 51.7165 50.6332 51.9952C50.4023 52.2739 50.2271 52.6203 50.1077 53.0344C49.9882 53.4485 49.9285 53.9263 49.9285 54.4678C49.9285 55.1924 50.036 55.8056 50.251 56.3073C50.458 56.801 50.7567 57.1752 51.1469 57.4301C51.5291 57.6769 51.983 57.8004 52.5086 57.8004C52.8191 57.8004 53.0978 57.7566 53.3447 57.669C53.5836 57.5814 53.7906 57.4659 53.9658 57.3226C54.141 57.1792 54.2923 57.0239 54.4197 56.8567H54.4914C54.4675 57.008 54.4516 57.1673 54.4436 57.3345C54.4277 57.4938 54.4197 57.653 54.4197 57.8123V60.5476H55.4828ZM52.7355 56.9284C52.1383 56.9284 51.7043 56.7253 51.4335 56.3192C51.1628 55.9051 51.0274 55.28 51.0274 54.4439C51.0274 53.6237 51.1628 53.0185 51.4335 52.6283C51.6963 52.2301 52.1343 52.031 52.7475 52.031C53.3288 52.031 53.7548 52.2222 54.0255 52.6044C54.2883 52.9787 54.4197 53.5202 54.4197 54.2289V54.4678C54.4197 55.2243 54.3003 55.8255 54.0614 56.2714C53.8145 56.7094 53.3726 56.9284 52.7355 56.9284ZM45.6808 57.8004C46.0949 57.8004 46.4811 57.7327 46.8395 57.5973C47.1978 57.4619 47.5124 57.2549 47.7831 56.9762C48.0459 56.6975 48.2529 56.3511 48.4042 55.937C48.5476 55.5149 48.6192 55.0212 48.6192 54.4558C48.6192 53.7153 48.4958 53.1021 48.249 52.6163C47.9941 52.1306 47.6477 51.7683 47.2098 51.5294C46.7718 51.2825 46.2741 51.1591 45.7167 51.1591C45.1592 51.1591 44.6576 51.2825 44.2116 51.5294C43.7657 51.7683 43.4153 52.1346 43.1605 52.6283C42.8977 53.114 42.7663 53.7352 42.7663 54.4917C42.7663 55.0491 42.842 55.5348 42.9933 55.9489C43.1366 56.363 43.3397 56.7094 43.6024 56.9881C43.8573 57.2589 44.1639 57.4619 44.5222 57.5973C44.8726 57.7327 45.2588 57.8004 45.6808 57.8004ZM45.6928 56.9284C45.2787 56.9284 44.9363 56.8289 44.6655 56.6298C44.3948 56.4307 44.1917 56.148 44.0563 55.7817C43.921 55.4074 43.8533 54.9695 43.8533 54.4678C43.8533 53.9581 43.921 53.5241 44.0563 53.1658C44.1917 52.7995 44.3988 52.5208 44.6775 52.3297C44.9482 52.1306 45.2906 52.031 45.7047 52.031C46.3258 52.031 46.7917 52.25 47.1023 52.688C47.4049 53.118 47.5562 53.7113 47.5562 54.4678C47.5562 54.9695 47.4885 55.4074 47.3531 55.7817C47.2098 56.148 47.0027 56.4307 46.732 56.6298C46.4533 56.8289 46.1069 56.9284 45.6928 56.9284ZM38.7814 57.8004C39.1796 57.8004 39.5618 57.7645 39.9281 57.6929C40.2865 57.6212 40.597 57.5216 40.8598 57.3942V56.4028C40.5811 56.5302 40.2745 56.6497 39.9401 56.7612C39.5977 56.8647 39.1915 56.9164 38.7217 56.9164C38.1962 56.9164 37.8259 56.8368 37.6109 56.6776C37.3879 56.5103 37.2764 56.2714 37.2764 55.9609C37.2764 55.7936 37.3162 55.6583 37.3959 55.5547C37.4675 55.4433 37.6109 55.3318 37.8259 55.2203C38.0409 55.1088 38.3554 54.9655 38.7695 54.7903C39.1836 54.6071 39.5379 54.4359 39.8326 54.2767C40.1272 54.1174 40.3542 53.9303 40.5134 53.7153C40.6727 53.4923 40.7523 53.2096 40.7523 52.8672C40.7523 52.4849 40.6568 52.1704 40.4657 51.9235C40.2666 51.6687 39.9839 51.4776 39.6176 51.3502C39.2433 51.2228 38.8014 51.1591 38.2917 51.1591C37.9413 51.1591 37.6069 51.1909 37.2884 51.2546C36.9698 51.3183 36.6394 51.4219 36.2969 51.5652L36.6194 52.4013C36.938 52.266 37.2326 52.1744 37.5034 52.1266C37.7661 52.0788 38.0289 52.0549 38.2917 52.0549C38.7854 52.0549 39.1478 52.1186 39.3787 52.2461C39.6017 52.3735 39.7131 52.5725 39.7131 52.8433C39.7131 53.0185 39.6654 53.1658 39.5698 53.2852C39.4663 53.4047 39.303 53.5202 39.0801 53.6316C38.8491 53.7431 38.5465 53.8785 38.1723 54.0378C37.7502 54.213 37.3919 54.3762 37.0972 54.5275C36.8026 54.6788 36.5796 54.862 36.4283 55.077C36.277 55.284 36.2014 55.5707 36.2014 55.937C36.2014 56.3431 36.3009 56.6855 36.5 56.9642C36.6911 57.235 36.9778 57.442 37.36 57.5854C37.7423 57.7287 38.2161 57.8004 38.7814 57.8004ZM33.9963 57.6809V56.9642L31.7148 56.7851V52.1744L33.8051 52.0191V51.2785H30.6398V56.7851L28.5017 56.9642V57.6809H33.9963ZM31.2848 50.1199C31.4919 50.1199 31.671 50.0562 31.8223 49.9288C31.9657 49.8014 32.0373 49.6142 32.0373 49.3674C32.0373 49.1046 31.9657 48.9135 31.8223 48.794C31.671 48.6666 31.4919 48.6029 31.2848 48.6029C31.0778 48.6029 30.9026 48.6666 30.7592 48.794C30.6079 48.9135 30.5323 49.1046 30.5323 49.3674C30.5323 49.6142 30.6079 49.8014 30.7592 49.9288C30.9026 50.0562 31.0778 50.1199 31.2848 50.1199ZM22.9879 57.8004C23.4418 57.8004 23.8479 57.7406 24.2063 57.6212C24.5646 57.5017 24.8513 57.2907 25.0663 56.9881C25.2733 56.6855 25.3768 56.2674 25.3768 55.7339V52.1744H27.1208V51.4338L25.3768 51.2427L25.1618 49.5704H24.3018V51.2785H21.8054V52.1744H24.3018V55.5309C24.3018 55.8494 24.258 56.1122 24.1704 56.3192C24.0749 56.5263 23.9236 56.6815 23.7165 56.7851C23.5095 56.8806 23.2427 56.9284 22.9162 56.9284C22.7092 56.9284 22.4862 56.9085 22.2473 56.8687C22.0084 56.8289 21.8014 56.789 21.6262 56.7492V57.6092C21.8173 57.657 22.0283 57.7008 22.2593 57.7406C22.4902 57.7804 22.7331 57.8004 22.9879 57.8004ZM19.6719 57.6809V56.9642L17.3905 56.7851V52.1744L19.4808 52.0191V51.2785H16.3154V56.7851L14.1773 56.9642V57.6809H19.6719ZM16.9605 50.1199C17.1675 50.1199 17.3467 50.0562 17.498 49.9288C17.6413 49.8014 17.713 49.6142 17.713 49.3674C17.713 49.1046 17.6413 48.9135 17.498 48.794C17.3467 48.6666 17.1675 48.6029 16.9605 48.6029C16.7534 48.6029 16.5782 48.6666 16.4349 48.794C16.2836 48.9135 16.2079 49.1046 16.2079 49.3674C16.2079 49.6142 16.2836 49.8014 16.4349 49.9288C16.5782 50.0562 16.7534 50.1199 16.9605 50.1199ZM10.5627 57.6809L12.9278 51.2785H11.8289L10.4911 55.077C10.4035 55.3318 10.3119 55.5985 10.2163 55.8773C10.1128 56.156 10.0093 56.4546 9.90578 56.7731H9.86995C9.76643 56.4546 9.66291 56.156 9.55939 55.8773C9.4479 55.5906 9.35235 55.3238 9.27271 55.077L7.97074 51.2785H6.84793L9.23688 57.6809H10.5627ZM2.27777 57.8004C2.9626 57.8004 3.55187 57.6729 4.04559 57.4181C4.53931 57.1633 4.92154 56.793 5.19229 56.3073C5.45507 55.8135 5.58646 55.2123 5.58646 54.5036C5.58646 53.8029 5.45905 53.2056 5.20423 52.7119C4.94941 52.2102 4.59505 51.828 4.14115 51.5652C3.68725 51.2945 3.1577 51.1591 2.5525 51.1591C1.99508 51.1591 1.51729 51.2825 1.11913 51.5294C0.713009 51.7762 0.402446 52.1266 0.187441 52.5805C-0.0355279 53.0264 -0.147012 53.564 -0.147012 54.193V54.6828H4.49949C4.48356 55.2402 4.38004 55.6822 4.18893 56.0086C3.98985 56.3351 3.72308 56.57 3.38863 56.7134C3.04621 56.8488 2.65204 56.9164 2.2061 56.9164C1.85572 56.9164 1.50932 56.8687 1.16691 56.7731C0.824493 56.6776 0.482077 56.5501 0.139661 56.3909V57.3465C0.505967 57.5057 0.872272 57.6212 1.23858 57.6929C1.60488 57.7645 1.95128 57.8004 2.27777 57.8004ZM0.928014 53.8228C0.943941 53.4485 1.01561 53.13 1.14302 52.8672C1.27043 52.5964 1.45358 52.3894 1.69248 52.2461C1.92341 52.1027 2.21008 52.031 2.5525 52.031C3.08603 52.031 3.52002 52.1943 3.85448 52.5208C4.18096 52.8393 4.38801 53.2733 4.4756 53.8228H0.928014ZM170.078 73.6809V72.9642L167.796 72.7851V68.1744L169.887 68.0191V67.2785H166.721V72.7851L164.583 72.9642V73.6809H170.078ZM167.366 66.1199C167.573 66.1199 167.752 66.0562 167.904 65.9288C168.047 65.8014 168.119 65.6142 168.119 65.3674C168.119 65.1046 168.047 64.9135 167.904 64.794C167.752 64.6666 167.573 64.6029 167.366 64.6029C167.159 64.6029 166.984 64.6666 166.841 64.794C166.689 64.9135 166.614 65.1046 166.614 65.3674C166.614 65.6142 166.689 65.8014 166.841 65.9288C166.984 66.0562 167.159 66.1199 167.366 66.1199ZM162.915 73.6809V67.2785H162.055L161.9 68.2222H161.84C161.713 67.9753 161.55 67.7762 161.351 67.6249C161.144 67.4657 160.905 67.3502 160.634 67.2785C160.363 67.1989 160.069 67.1591 159.75 67.1591C159.105 67.1591 158.587 67.3422 158.197 67.7085C157.799 68.0669 157.6 68.6323 157.6 69.4047V73.6809H158.675V69.5958C158.675 69.0543 158.787 68.6601 159.01 68.4133C159.225 68.1585 159.575 68.031 160.061 68.031C160.714 68.031 161.175 68.2381 161.446 68.6522C161.709 69.0663 161.84 69.6476 161.84 70.3961V73.6809H162.915ZM151.907 73.8004C152.361 73.8004 152.767 73.7406 153.125 73.6212C153.484 73.5017 153.77 73.2907 153.985 72.9881C154.192 72.6855 154.296 72.2674 154.296 71.7339V68.1744H156.04V67.4338L154.296 67.2427L154.081 65.5704H153.221V67.2785H150.725V68.1744H153.221V71.5309C153.221 71.8494 153.177 72.1122 153.09 72.3192C152.994 72.5263 152.843 72.6815 152.636 72.7851C152.429 72.8806 152.162 72.9284 151.835 72.9284C151.628 72.9284 151.405 72.9085 151.166 72.8687C150.928 72.8289 150.721 72.789 150.545 72.7492V73.6092C150.736 73.657 150.948 73.7008 151.178 73.7406C151.409 73.7804 151.652 73.8004 151.907 73.8004ZM145.521 73.8004C146.206 73.8004 146.795 73.6729 147.289 73.4181C147.783 73.1633 148.165 72.793 148.436 72.3073C148.699 71.8135 148.83 71.2123 148.83 70.5036C148.83 69.8029 148.703 69.2056 148.448 68.7119C148.193 68.2102 147.839 67.828 147.385 67.5652C146.931 67.2945 146.401 67.1591 145.796 67.1591C145.239 67.1591 144.761 67.2825 144.363 67.5294C143.957 67.7762 143.646 68.1266 143.431 68.5805C143.208 69.0264 143.097 69.564 143.097 70.193V70.6828H147.743C147.727 71.2402 147.624 71.6822 147.432 72.0086C147.233 72.3351 146.967 72.57 146.632 72.7134C146.29 72.8488 145.896 72.9164 145.45 72.9164C145.099 72.9164 144.753 72.8687 144.41 72.7731C144.068 72.6776 143.726 72.5501 143.383 72.3909V73.3465C143.749 73.5057 144.116 73.6212 144.482 73.6929C144.848 73.7645 145.195 73.8004 145.521 73.8004ZM144.172 69.8228C144.187 69.4485 144.259 69.13 144.387 68.8672C144.514 68.5964 144.697 68.3894 144.936 68.2461C145.167 68.1027 145.454 68.031 145.796 68.031C146.33 68.031 146.764 68.1943 147.098 68.5208C147.424 68.8393 147.632 69.2733 147.719 69.8228H144.172ZM139.088 76.6074C139.526 76.6074 139.94 76.5636 140.33 76.476C140.712 76.3963 141.067 76.2888 141.393 76.1535V75.1979C141.075 75.381 140.708 75.5164 140.294 75.604C139.872 75.6996 139.482 75.7473 139.124 75.7473C138.399 75.7473 137.893 75.5761 137.607 75.2337C137.32 74.8993 137.177 74.4374 137.177 73.8481V73.6212C137.177 73.5256 137.177 73.4341 137.177 73.3465C137.169 73.2589 137.157 73.1235 137.141 72.9403H137.189C137.412 73.2668 137.674 73.4938 137.977 73.6212C138.272 73.7406 138.63 73.8004 139.052 73.8004C139.896 73.8004 140.553 73.5137 141.023 72.9403C141.493 72.359 141.728 71.5508 141.728 70.5156C141.728 69.4724 141.497 68.6522 141.035 68.0549C140.565 67.4577 139.924 67.1591 139.112 67.1591C138.682 67.1591 138.319 67.2307 138.025 67.3741C137.73 67.5095 137.467 67.7404 137.236 68.0669H137.177L137.033 67.2785H136.173V73.8481C136.173 74.4533 136.277 74.959 136.484 75.3651C136.691 75.7792 137.009 76.0898 137.439 76.2968C137.869 76.5038 138.419 76.6074 139.088 76.6074ZM138.849 72.9284C138.586 72.9284 138.351 72.8886 138.144 72.8089C137.929 72.7213 137.75 72.59 137.607 72.4148C137.455 72.2316 137.34 72.0047 137.26 71.7339C137.181 71.4552 137.141 71.1247 137.141 70.7425V70.4917C137.141 69.9104 137.212 69.4405 137.356 69.0822C137.491 68.7159 137.69 68.4491 137.953 68.2819C138.216 68.1147 138.526 68.031 138.885 68.031C139.49 68.031 139.932 68.2461 140.211 68.6761C140.489 69.0981 140.629 69.6993 140.629 70.4797C140.629 71.276 140.485 71.8852 140.199 72.3073C139.904 72.7213 139.454 72.9284 138.849 72.9284ZM131.197 73.8004C131.882 73.8004 132.471 73.6729 132.965 73.4181C133.458 73.1633 133.841 72.793 134.111 72.3073C134.374 71.8135 134.506 71.2123 134.506 70.5036C134.506 69.8029 134.378 69.2056 134.123 68.7119C133.869 68.2102 133.514 67.828 133.06 67.5652C132.606 67.2945 132.077 67.1591 131.472 67.1591C130.914 67.1591 130.436 67.2825 130.038 67.5294C129.632 67.7762 129.322 68.1266 129.107 68.5805C128.884 69.0264 128.772 69.564 128.772 70.193V70.6828H133.419C133.403 71.2402 133.299 71.6822 133.108 72.0086C132.909 72.3351 132.642 72.57 132.308 72.7134C131.965 72.8488 131.571 72.9164 131.125 72.9164C130.775 72.9164 130.428 72.8687 130.086 72.7731C129.744 72.6776 129.401 72.5501 129.059 72.3909V73.3465C129.425 73.5057 129.791 73.6212 130.158 73.6929C130.524 73.7645 130.87 73.8004 131.197 73.8004ZM129.847 69.8228C129.863 69.4485 129.935 69.13 130.062 68.8672C130.19 68.5964 130.373 68.3894 130.612 68.2461C130.843 68.1027 131.129 68.031 131.472 68.031C132.005 68.031 132.439 68.1943 132.774 68.5208C133.1 68.8393 133.307 69.2733 133.395 69.8228H129.847ZM127.32 73.6809V72.9642L125.373 72.7851V68.1744L127.128 68.0191V67.2785H124.513L124.369 68.4491H124.321C124.098 68.0271 123.856 67.7085 123.593 67.4935C123.322 67.2706 122.968 67.1591 122.53 67.1591C122.259 67.1591 122.02 67.183 121.813 67.2307C121.598 67.2785 121.403 67.3422 121.228 67.4219L121.514 68.3655C121.642 68.2938 121.793 68.2341 121.968 68.1863C122.144 68.1306 122.331 68.1027 122.53 68.1027C122.872 68.1027 123.175 68.2102 123.438 68.4252C123.7 68.6402 123.907 68.9269 124.059 69.2852C124.21 69.6436 124.286 70.0378 124.286 70.4678V72.7851L122.422 72.9642V73.6809H127.32ZM117.303 68.7836C117.51 68.7836 117.685 68.7199 117.828 68.5924C117.972 68.465 118.043 68.258 118.043 67.9713C118.043 67.6687 117.972 67.4577 117.828 67.3383C117.685 67.2188 117.51 67.1591 117.303 67.1591C117.096 67.1591 116.924 67.2188 116.789 67.3383C116.646 67.4577 116.574 67.6687 116.574 67.9713C116.574 68.258 116.646 68.465 116.789 68.5924C116.924 68.7199 117.096 68.7836 117.303 68.7836ZM117.315 73.8004C117.522 73.8004 117.697 73.7367 117.84 73.6092C117.983 73.4818 118.055 73.2748 118.055 72.9881C118.055 72.6855 117.983 72.4745 117.84 72.355C117.697 72.2356 117.522 72.1759 117.315 72.1759C117.108 72.1759 116.936 72.2356 116.801 72.355C116.658 72.4745 116.586 72.6855 116.586 72.9881C116.586 73.2748 116.658 73.4818 116.801 73.6092C116.936 73.7367 117.108 73.8004 117.315 73.8004ZM104.997 67.9474C104.925 67.6687 104.834 67.3661 104.722 67.0396C104.611 66.7131 104.491 66.3867 104.364 66.0602C104.228 65.7337 104.097 65.4311 103.97 65.1524H103.193C103.265 65.455 103.341 65.7815 103.42 66.1318C103.5 66.4742 103.572 66.8167 103.635 67.1591C103.699 67.4935 103.751 67.8001 103.79 68.0788H104.925L104.997 67.9474ZM102.787 67.9474C102.715 67.6687 102.624 67.3661 102.512 67.0396C102.401 66.7131 102.281 66.3867 102.154 66.0602C102.019 65.7337 101.887 65.4311 101.76 65.1524H100.983C101.055 65.455 101.131 65.7815 101.21 66.1318C101.29 66.4742 101.362 66.8167 101.425 67.1591C101.489 67.4935 101.541 67.8001 101.581 68.0788H102.715L102.787 67.9474ZM96.3894 65.1524C95.7842 65.8531 95.3423 66.6494 95.0636 67.5413C94.7769 68.4252 94.6335 69.3489 94.6335 70.3125C94.6335 71.284 94.7769 72.2237 95.0636 73.1315C95.3423 74.0313 95.7842 74.8435 96.3894 75.5682H97.3808C96.8234 74.8196 96.4053 73.9955 96.1266 73.0956C95.84 72.1958 95.6966 71.2721 95.6966 70.3244C95.6966 69.4007 95.84 68.4969 96.1266 67.613C96.4053 66.7211 96.8194 65.9009 97.3689 65.1524H96.3894ZM89.7289 75.3532C89.6413 75.0028 89.5577 74.6365 89.4781 74.2543C89.3984 73.88 89.3228 73.5097 89.2511 73.1434C89.1795 72.7771 89.1237 72.4426 89.0839 72.14H87.8058L87.7103 72.2834C87.766 72.5143 87.8377 72.7612 87.9253 73.0239C88.0129 73.2788 88.1084 73.5376 88.2119 73.8004C88.3075 74.0711 88.411 74.3379 88.5225 74.6007C88.626 74.8634 88.7335 75.1143 88.845 75.3532H89.7289ZM88.3911 68.7836C88.5982 68.7836 88.7733 68.7199 88.9167 68.5924C89.06 68.465 89.1317 68.258 89.1317 67.9713C89.1317 67.6687 89.06 67.4577 88.9167 67.3383C88.7733 67.2188 88.5982 67.1591 88.3911 67.1591C88.1841 67.1591 88.0089 67.2188 87.8655 67.3383C87.7222 67.4577 87.6505 67.6687 87.6505 67.9713C87.6505 68.258 87.7222 68.465 87.8655 68.5924C88.0089 68.7199 88.1841 68.7836 88.3911 68.7836ZM167.701 89.8004C168.099 89.8004 168.481 89.7645 168.847 89.6929C169.206 89.6212 169.516 89.5216 169.779 89.3942V88.4028C169.5 88.5302 169.194 88.6497 168.859 88.7612C168.517 88.8647 168.111 88.9164 167.641 88.9164C167.115 88.9164 166.745 88.8368 166.53 88.6776C166.307 88.5103 166.196 88.2714 166.196 87.9609C166.196 87.7936 166.235 87.6583 166.315 87.5547C166.387 87.4433 166.53 87.3318 166.745 87.2203C166.96 87.1088 167.275 86.9655 167.689 86.7903C168.103 86.6071 168.457 86.4359 168.752 86.2767C169.046 86.1174 169.273 85.9303 169.433 85.7153C169.592 85.4923 169.672 85.2096 169.672 84.8672C169.672 84.4849 169.576 84.1704 169.385 83.9235C169.186 83.6687 168.903 83.4776 168.537 83.3502C168.162 83.2228 167.721 83.1591 167.211 83.1591C166.861 83.1591 166.526 83.1909 166.208 83.2546C165.889 83.3183 165.559 83.4219 165.216 83.5652L165.539 84.4013C165.857 84.266 166.152 84.1744 166.423 84.1266C166.685 84.0788 166.948 84.0549 167.211 84.0549C167.705 84.0549 168.067 84.1186 168.298 84.2461C168.521 84.3735 168.632 84.5725 168.632 84.8433C168.632 85.0185 168.585 85.1658 168.489 85.2852C168.385 85.4047 168.222 85.5202 167.999 85.6316C167.768 85.7431 167.466 85.8785 167.091 86.0378C166.669 86.213 166.311 86.3762 166.016 86.5275C165.722 86.6788 165.499 86.862 165.348 87.077C165.196 87.284 165.121 87.5707 165.121 87.937C165.121 88.3431 165.22 88.6855 165.419 88.9642C165.61 89.235 165.897 89.442 166.279 89.5854C166.661 89.7287 167.135 89.8004 167.701 89.8004ZM159.834 89.8004C160.455 89.8004 160.992 89.6889 161.446 89.4659C161.9 89.235 162.251 88.8806 162.497 88.4028C162.736 87.9171 162.856 87.292 162.856 86.5275C162.856 85.7073 162.724 85.0503 162.462 84.5566C162.191 84.0629 161.821 83.7085 161.351 83.4935C160.873 83.2706 160.331 83.1591 159.726 83.1591C159.352 83.1591 159.013 83.1989 158.711 83.2785C158.4 83.3502 158.11 83.4577 157.839 83.601L158.161 84.473C158.416 84.3376 158.663 84.2421 158.902 84.1863C159.141 84.1226 159.4 84.0908 159.678 84.0908C160.164 84.0908 160.562 84.1823 160.873 84.3655C161.175 84.5407 161.398 84.8075 161.542 85.1658C161.685 85.5162 161.757 85.9621 161.757 86.5036C161.757 87.069 161.681 87.5269 161.53 87.8773C161.379 88.2276 161.152 88.4825 160.849 88.6417C160.538 88.801 160.16 88.8806 159.714 88.8806C159.364 88.8806 159.033 88.8448 158.723 88.7731C158.412 88.6935 158.142 88.6019 157.911 88.4984V89.442C158.149 89.5535 158.444 89.6411 158.795 89.7048C159.145 89.7685 159.491 89.8004 159.834 89.8004ZM153.77 89.8004C154.4 89.8004 154.909 89.6451 155.299 89.3345C155.682 89.0239 155.873 88.5541 155.873 87.925C155.873 87.4632 155.761 87.0809 155.538 86.7783C155.315 86.4678 154.989 86.2368 154.559 86.0855C154.121 85.9263 153.591 85.8387 152.97 85.8228L151.597 85.7869V85.5241C151.597 84.9508 151.74 84.5606 152.027 84.3536C152.313 84.1385 152.699 84.031 153.185 84.031C153.528 84.031 153.854 84.0748 154.165 84.1624C154.475 84.25 154.77 84.3735 155.049 84.5327L155.419 83.7205C155.116 83.5692 154.782 83.4378 154.415 83.3263C154.041 83.2148 153.611 83.1591 153.125 83.1591C152.321 83.1591 151.704 83.3422 151.274 83.7085C150.836 84.0669 150.617 84.6283 150.617 85.3927V89.6809H151.477L151.597 88.797H151.644C151.819 89.02 152.015 89.2071 152.23 89.3584C152.437 89.5017 152.668 89.6092 152.922 89.6809C153.177 89.7605 153.46 89.8004 153.77 89.8004ZM153.591 88.9284C153.233 88.9284 152.902 88.8647 152.6 88.7373C152.297 88.6019 152.054 88.4028 151.871 88.14C151.688 87.8693 151.597 87.5309 151.597 87.1247V86.5514L152.743 86.5872C153.253 86.6031 153.663 86.6669 153.974 86.7783C154.284 86.8819 154.511 87.0292 154.654 87.2203C154.79 87.4034 154.857 87.6264 154.857 87.8892C154.857 88.2555 154.742 88.5223 154.511 88.6895C154.28 88.8488 153.974 88.9284 153.591 88.9284ZM148.591 89.6809V83.2785H147.731L147.576 84.2222H147.516C147.389 83.9753 147.225 83.7762 147.026 83.6249C146.819 83.4657 146.58 83.3502 146.31 83.2785C146.039 83.1989 145.744 83.1591 145.426 83.1591C144.781 83.1591 144.263 83.3422 143.873 83.7085C143.475 84.0669 143.276 84.6323 143.276 85.4047V89.6809H144.351V85.5958C144.351 85.0543 144.462 84.6601 144.685 84.4133C144.9 84.1585 145.251 84.031 145.736 84.031C146.389 84.031 146.851 84.2381 147.122 84.6522C147.385 85.0663 147.516 85.6476 147.516 86.3961V89.6809H148.591ZM139.506 89.6809V84.1744H141.596V83.4338L139.506 83.2785V82.5499C139.506 82.0403 139.41 81.6421 139.219 81.3554C139.02 81.0608 138.745 80.8537 138.395 80.7343C138.045 80.6069 137.638 80.5432 137.177 80.5432C136.826 80.5432 136.52 80.5671 136.257 80.6149C135.994 80.6626 135.767 80.7184 135.576 80.7821L135.815 81.6063C135.974 81.5585 136.173 81.5187 136.412 81.4868C136.651 81.447 136.886 81.4271 137.117 81.4271C137.531 81.4271 137.853 81.5147 138.084 81.6899C138.315 81.8651 138.431 82.1995 138.431 82.6932V83.2785H136.018V84.1744H138.431V89.6809H139.506ZM131.077 91.5682C131.683 90.8674 132.129 90.0751 132.415 89.1912C132.694 88.2993 132.833 87.3716 132.833 86.408C132.833 85.4365 132.694 84.5009 132.415 83.601C132.129 82.6932 131.683 81.877 131.077 81.1524H130.086C130.644 81.9009 131.066 82.7251 131.352 83.6249C131.631 84.5248 131.77 85.4485 131.77 86.3961C131.77 87.3198 131.631 88.2276 131.352 89.1195C131.066 90.0034 130.647 90.8196 130.098 91.5682H131.077ZM126.483 83.9474C126.412 83.6687 126.32 83.3661 126.209 83.0396C126.097 82.7131 125.978 82.3867 125.85 82.0602C125.715 81.7337 125.584 81.4311 125.456 81.1524H124.68C124.751 81.455 124.827 81.7815 124.907 82.1318C124.986 82.4742 125.058 82.8167 125.122 83.1591C125.185 83.4935 125.237 83.8001 125.277 84.0788H126.412L126.483 83.9474ZM124.274 83.9474C124.202 83.6687 124.11 83.3661 123.999 83.0396C123.887 82.7131 123.768 82.3867 123.641 82.0602C123.505 81.7337 123.374 81.4311 123.246 81.1524H122.47C122.542 81.455 122.617 81.7815 122.697 82.1318C122.777 82.4742 122.848 82.8167 122.912 83.1591C122.976 83.4935 123.027 83.8001 123.067 84.0788H124.202L124.274 83.9474ZM119.907 89.6809L115.654 81.1524H114.734L118.987 89.6809H119.907ZM115.451 89.7884C115.937 89.7884 116.343 89.6132 116.67 89.2628C116.988 88.9045 117.147 88.4028 117.147 87.7578C117.147 87.1128 116.996 86.6151 116.693 86.2647C116.383 85.9143 115.961 85.7391 115.427 85.7391C114.942 85.7391 114.539 85.9143 114.221 86.2647C113.894 86.6151 113.731 87.1128 113.731 87.7578C113.731 88.4028 113.886 88.9045 114.197 89.2628C114.508 89.6132 114.926 89.7884 115.451 89.7884ZM115.439 89.0956C115.168 89.0956 114.965 88.9881 114.83 88.7731C114.695 88.5581 114.627 88.2197 114.627 87.7578C114.627 87.288 114.695 86.9535 114.83 86.7544C114.965 86.5474 115.168 86.4439 115.439 86.4439C115.71 86.4439 115.917 86.5474 116.06 86.7544C116.196 86.9535 116.263 87.288 116.263 87.7578C116.263 88.2197 116.196 88.5581 116.06 88.7731C115.917 88.9881 115.71 89.0956 115.439 89.0956ZM119.202 85.1061C119.688 85.1061 120.094 84.9309 120.42 84.5805C120.739 84.2222 120.898 83.7205 120.898 83.0755C120.898 82.4305 120.747 81.9328 120.444 81.5824C120.134 81.232 119.711 81.0568 119.178 81.0568C118.692 81.0568 118.29 81.232 117.972 81.5824C117.645 81.9328 117.482 82.4305 117.482 83.0755C117.482 83.7205 117.637 84.2222 117.948 84.5805C118.258 84.9309 118.676 85.1061 119.202 85.1061ZM119.19 84.4133C118.919 84.4133 118.716 84.3058 118.581 84.0908C118.445 83.8758 118.378 83.5373 118.378 83.0755C118.378 82.6056 118.445 82.2712 118.581 82.0721C118.716 81.8651 118.919 81.7615 119.19 81.7615C119.461 81.7615 119.668 81.8651 119.811 82.0721C119.946 82.2712 120.014 82.6056 120.014 83.0755C120.014 83.5373 119.946 83.8758 119.811 84.0908C119.668 84.3058 119.461 84.4133 119.19 84.4133ZM110.463 89.8004C110.853 89.8004 111.211 89.7327 111.538 89.5973C111.856 89.4619 112.131 89.2549 112.362 88.9762C112.593 88.6975 112.772 88.3471 112.9 87.925C113.019 87.503 113.079 87.0093 113.079 86.4439C113.079 85.7352 112.979 85.1379 112.78 84.6522C112.573 84.1585 112.267 83.7882 111.86 83.5413C111.454 83.2865 110.949 83.1591 110.343 83.1591C110.049 83.1591 109.79 83.1989 109.567 83.2785C109.336 83.3582 109.141 83.4696 108.982 83.613C108.815 83.7484 108.683 83.9076 108.588 84.0908H108.516C108.524 84.0111 108.536 83.9196 108.552 83.816C108.56 83.7046 108.568 83.5931 108.576 83.4816C108.584 83.3621 108.588 83.2507 108.588 83.1471V80.6029H107.525V89.6809H108.408L108.528 88.8209H108.576C108.695 89.012 108.842 89.1832 109.018 89.3345C109.185 89.4778 109.388 89.5933 109.627 89.6809C109.858 89.7605 110.136 89.8004 110.463 89.8004ZM110.26 88.9284C109.694 88.9284 109.276 88.7333 109.006 88.3431C108.727 87.9449 108.588 87.4074 108.588 86.7306V86.4917C108.588 86.0218 108.639 85.6038 108.743 85.2375C108.846 84.8632 109.018 84.5686 109.257 84.3536C109.495 84.1385 109.818 84.031 110.224 84.031C110.781 84.031 111.215 84.2381 111.526 84.6522C111.829 85.0663 111.98 85.6993 111.98 86.5514C111.98 87.3397 111.841 87.933 111.562 88.3312C111.275 88.7293 110.841 88.9284 110.26 88.9284ZM100.995 81.2838C101.067 81.5625 101.159 81.8651 101.27 82.1916C101.382 82.518 101.505 82.8445 101.64 83.171C101.768 83.4975 101.895 83.8001 102.023 84.0788H102.799C102.727 83.7762 102.652 83.4537 102.572 83.1113C102.492 82.7609 102.421 82.4185 102.357 82.0841C102.293 81.7416 102.242 81.4311 102.202 81.1524H101.067L100.995 81.2838ZM103.205 81.2838C103.277 81.5625 103.368 81.8651 103.48 82.1916C103.591 82.518 103.715 82.8445 103.85 83.171C103.978 83.4975 104.105 83.8001 104.232 84.0788H105.009C104.937 83.7762 104.862 83.4537 104.782 83.1113C104.702 82.7609 104.631 82.4185 104.567 82.0841C104.503 81.7416 104.451 81.4311 104.412 81.1524H103.277L103.205 81.2838ZM96.8911 91.3532C96.8035 91.0028 96.7199 90.6365 96.6403 90.2543C96.5606 89.88 96.485 89.5097 96.4133 89.1434C96.3416 88.7771 96.2859 88.4426 96.2461 88.14H94.968L94.8724 88.2834C94.9282 88.5143 94.9998 88.7612 95.0874 89.0239C95.175 89.2788 95.2706 89.5376 95.3741 89.8004C95.4697 90.0711 95.5732 90.3379 95.6847 90.6007C95.7882 90.8634 95.8957 91.1143 96.0072 91.3532H96.8911Z" fill="url(#paint0_radial_2_431)"/>
<defs>
<radialGradient id="paint0_radial_2_431" cx="0" cy="0" r="1" gradientUnits="userSpaceOnUse" gradientTransform="translate(53.1278 58.8281) rotate(90) scale(62.1472 117.905)">
<stop offset="0.535826" stop-color="#B5C5FF"/>
<stop offset="1" stop-color="white" stop-opacity="0"/>
</radialGradient>
</defs>
</svg>
