<svg id="formula2" width="45" height="27" viewBox="0 0 45 27" fill="none" xmlns="http://www.w3.org/2000/svg">
<path d="M7.70459 19.0267C7.80418 18.6285 7.92265 18.1647 8.05268 17.6677M12.2365 19.0267C12.1072 18.5097 11.9461 17.882 11.7691 17.2147M11.7691 17.2147C11.1191 14.7639 10.2555 11.7787 9.97057 11.7787C9.66777 11.7787 8.71165 15.1492 8.05268 17.6677M11.7691 17.2147L8.05268 17.6677M11.7691 17.2147L14.0493 16.7617" stroke="#4F75CD" stroke-width="1.25918" stroke-linecap="round"/>
<path d="M30.3625 16.3079C30.3625 15.8063 30.3684 15.1705 30.3833 14.4959M30.3833 14.4959C30.4266 12.5307 30.5458 10.2357 30.8157 9.96588C31.2689 9.51288 34.8945 8.60687 31.2689 13.5899C30.9063 14.3147 30.5274 14.4959 30.3833 14.4959ZM30.3833 14.4959C32.7934 14.6469 36.8885 15.5831 33.9881 18.1199C31.0876 19.2071 30.0604 18.5729 29.9093 18.1199" stroke="#4F75CD" stroke-width="1.25918" stroke-linecap="round"/>
<path d="M44.688 13.137C44.688 20.0056 38.7207 25.6445 31.2693 25.6445C23.818 25.6445 17.8507 20.0056 17.8507 13.137C17.8507 6.26847 23.818 0.629589 31.2693 0.629589C38.7207 0.629589 44.688 6.26847 44.688 13.137Z" stroke="#4F75CD" stroke-width="1.25918"/>
<path d="M21.2993 8.1543L18.127 10.8723" stroke="#4F75CD" stroke-width="1.25918" stroke-linecap="round"/>
<path d="M23.8417 14.4961C23.8417 20.6308 18.6684 25.6446 12.2357 25.6446C5.80307 25.6446 0.629711 20.6308 0.629711 14.4961C0.629711 8.3614 5.80307 3.34767 12.2357 3.34767C18.6684 3.34767 23.8417 8.3614 23.8417 14.4961Z" stroke="#4F75CD" stroke-width="1.25918"/>
<path d="M22.6589 9.51288L18.127 14.0429" stroke="#4F75CD" stroke-width="1.25918" stroke-linecap="round"/>
<path d="M23.5654 12.2307L18.5802 16.7607" stroke="#4F75CD" stroke-width="1.25918" stroke-linecap="round"/>
<path d="M24.0184 14.949L19.4865 19.0261" stroke="#4F75CD" stroke-width="1.25918" stroke-linecap="round"/>
<path d="M23.1119 18.1197L20.3927 20.3847" stroke="#4F75CD" stroke-width="1.25918" stroke-linecap="round"/>
</svg>
